<?xml version="1.0" encoding="utf-8" standalone="no"?>
<!DOCTYPE svg PUBLIC "-//W3C//DTD SVG 1.1//EN"
  "http://www.w3.org/Graphics/SVG/1.1/DTD/svg11.dtd">
<svg xmlns:xlink="http://www.w3.org/1999/xlink" width="1008pt" height="1008pt" viewBox="0 0 1008 1008" xmlns="http://www.w3.org/2000/svg" version="1.1">
 <metadata>
  <rdf:RDF xmlns:dc="http://purl.org/dc/elements/1.1/" xmlns:cc="http://creativecommons.org/ns#" xmlns:rdf="http://www.w3.org/1999/02/22-rdf-syntax-ns#">
   <cc:Work>
    <dc:type rdf:resource="http://purl.org/dc/dcmitype/StillImage"/>
    <dc:date>2024-06-27T14:22:01.877157</dc:date>
    <dc:format>image/svg+xml</dc:format>
    <dc:creator>
     <cc:Agent>
      <dc:title>Matplotlib v3.7.1, https://matplotlib.org/</dc:title>
     </cc:Agent>
    </dc:creator>
   </cc:Work>
  </rdf:RDF>
 </metadata>
 <defs>
  <style type="text/css">*{stroke-linejoin: round; stroke-linecap: butt}</style>
 </defs>
 <g id="figure_1">
  <g id="patch_1">
   <path d="M 0 1008 
L 1008 1008 
L 1008 0 
L 0 0 
z
" style="fill: #ffffff"/>
  </g>
  <g id="axes_1">
   <g id="patch_2">
    <path d="M 320.607438 702.391906 
C 372.217934 702.391906 421.721546 682.01913 458.215677 645.760444 
C 494.709809 609.501758 515.214876 560.317525 515.214876 509.04 
C 515.214876 457.762475 494.709809 408.578242 458.215677 372.319556 
C 421.721546 336.06087 372.217934 315.688094 320.607438 315.688094 
C 268.996942 315.688094 219.493331 336.06087 182.999199 372.319556 
C 146.505067 408.578242 126 457.762475 126 509.04 
C 126 560.317525 146.505067 609.501758 182.999199 645.760444 
C 219.493331 682.01913 268.996942 702.391906 320.607438 702.391906 
z
" clip-path="url(#p6439073c6e)" style="fill: #add8e6; opacity: 0.5; stroke: #add8e6; stroke-width: 2; stroke-linejoin: miter"/>
   </g>
   <g id="patch_3">
    <path d="M 711.207438 703.768094 
C 763.185273 703.768094 813.041228 683.250313 849.795108 646.733556 
C 886.548987 610.216798 907.2 560.682494 907.2 509.04 
C 907.2 457.397506 886.548987 407.863202 849.795108 371.346444 
C 813.041228 334.829687 763.185273 314.311906 711.207438 314.311906 
C 659.229603 314.311906 609.373648 334.829687 572.619769 371.346444 
C 535.865889 407.863202 515.214876 457.397506 515.214876 509.04 
C 515.214876 560.682494 535.865889 610.216798 572.619769 646.733556 
C 609.373648 683.250313 659.229603 703.768094 711.207438 703.768094 
z
" clip-path="url(#p6439073c6e)" style="fill: #add8e6; opacity: 0.5; stroke: #add8e6; stroke-width: 2; stroke-linejoin: miter"/>
   </g>
   <g id="patch_4">
    <path d="M 251.085821 383.026321 
C 254.767331 383.026321 258.298552 381.573079 260.901772 378.986653 
C 263.504993 376.400228 264.967672 372.891789 264.967672 369.234031 
C 264.967672 365.576273 263.504993 362.067835 260.901772 359.481409 
C 258.298552 356.894984 254.767331 355.441741 251.085821 355.441741 
C 247.404312 355.441741 243.873091 356.894984 241.269871 359.481409 
C 238.66665 362.067835 237.203971 365.576273 237.203971 369.234031 
C 237.203971 372.891789 238.66665 376.400228 241.269871 378.986653 
C 243.873091 381.573079 247.404312 383.026321 251.085821 383.026321 
z
" clip-path="url(#p6439073c6e)" style="fill: #69b3a2; opacity: 0.3; stroke: #69b3a2; stroke-width: 2; stroke-linejoin: miter"/>
   </g>
   <g id="patch_5">
    <path d="M 214.108203 397.584299 
C 217.789713 397.584299 221.320934 396.131056 223.924154 393.54463 
C 226.527375 390.958205 227.990054 387.449766 227.990054 383.792008 
C 227.990054 380.13425 226.527375 376.625812 223.924154 374.039386 
C 221.320934 371.452961 217.789713 369.999718 214.108203 369.999718 
C 210.426694 369.999718 206.895473 371.452961 204.292253 374.039386 
C 201.689032 376.625812 200.226353 380.13425 200.226353 383.792008 
C 200.226353 387.449766 201.689032 390.958205 204.292253 393.54463 
C 206.895473 396.131056 210.426694 397.584299 214.108203 397.584299 
z
" clip-path="url(#p6439073c6e)" style="fill: #69b3a2; opacity: 0.3; stroke: #69b3a2; stroke-width: 2; stroke-linejoin: miter"/>
   </g>
   <g id="patch_6">
    <path d="M 598.107826 392.14042 
C 601.830907 392.14042 605.402002 390.670768 608.034619 388.055136 
C 610.667235 385.439504 612.146431 381.891449 612.146431 378.192387 
C 612.146431 374.493325 610.667235 370.94527 608.034619 368.329638 
C 605.402002 365.714007 601.830907 364.244354 598.107826 364.244354 
C 594.384744 364.244354 590.813649 365.714007 588.181033 368.329638 
C 585.548417 370.94527 584.069221 374.493325 584.069221 378.192387 
C 584.069221 381.891449 585.548417 385.439504 588.181033 388.055136 
C 590.813649 390.670768 594.384744 392.14042 598.107826 392.14042 
z
" clip-path="url(#p6439073c6e)" style="fill: #69b3a2; opacity: 0.3; stroke: #69b3a2; stroke-width: 2; stroke-linejoin: miter"/>
   </g>
   <g id="patch_7">
    <path d="M 684.186124 344.235642 
C 687.909206 344.235642 691.480301 342.76599 694.112917 340.150358 
C 696.745533 337.534727 698.224729 333.986671 698.224729 330.287609 
C 698.224729 326.588548 696.745533 323.040492 694.112917 320.42486 
C 691.480301 317.809229 687.909206 316.339576 684.186124 316.339576 
C 680.463043 316.339576 676.891948 317.809229 674.259331 320.42486 
C 671.626715 323.040492 670.147519 326.588548 670.147519 330.287609 
C 670.147519 333.986671 671.626715 337.534727 674.259331 340.150358 
C 676.891948 342.76599 680.463043 344.235642 684.186124 344.235642 
z
" clip-path="url(#p6439073c6e)" style="fill: #69b3a2; opacity: 0.3; stroke: #69b3a2; stroke-width: 2; stroke-linejoin: miter"/>
   </g>
   <g id="patch_8">
    <path d="M 759.85875 355.042991 
C 763.581831 355.042991 767.152926 353.573338 769.785543 350.957707 
C 772.418159 348.342075 773.897355 344.794019 773.897355 341.094958 
C 773.897355 337.395896 772.418159 333.847841 769.785543 331.232209 
C 767.152926 328.616577 763.581831 327.146925 759.85875 327.146925 
C 756.135668 327.146925 752.564573 328.616577 749.931957 331.232209 
C 747.299341 333.847841 745.820145 337.395896 745.820145 341.094958 
C 745.820145 344.794019 747.299341 348.342075 749.931957 350.957707 
C 752.564573 353.573338 756.135668 355.042991 759.85875 355.042991 
z
" clip-path="url(#p6439073c6e)" style="fill: #69b3a2; opacity: 0.3; stroke: #69b3a2; stroke-width: 2; stroke-linejoin: miter"/>
   </g>
   <g id="patch_9">
    <path d="M 784.967936 367.526106 
C 788.691017 367.526106 792.262112 366.056453 794.894729 363.440822 
C 797.527345 360.82519 799.006541 357.277135 799.006541 353.578073 
C 799.006541 349.879011 797.527345 346.330956 794.894729 343.715324 
C 792.262112 341.099693 788.691017 339.63004 784.967936 339.63004 
C 781.244854 339.63004 777.673759 341.099693 775.041143 343.715324 
C 772.408527 346.330956 770.929331 349.879011 770.929331 353.578073 
C 770.929331 357.277135 772.408527 360.82519 775.041143 363.440822 
C 777.673759 366.056453 781.244854 367.526106 784.967936 367.526106 
z
" clip-path="url(#p6439073c6e)" style="fill: #69b3a2; opacity: 0.3; stroke: #69b3a2; stroke-width: 2; stroke-linejoin: miter"/>
   </g>
   <g id="patch_10">
    <path d="M 798.699837 404.089393 
C 803.965069 404.089393 809.01536 402.01099 812.738442 398.311928 
C 816.461523 394.612867 818.553422 389.595158 818.553422 384.363895 
C 818.553422 379.132632 816.461523 374.114923 812.738442 370.415862 
C 809.01536 366.7168 803.965069 364.638397 798.699837 364.638397 
C 793.434605 364.638397 788.384314 366.7168 784.661232 370.415862 
C 780.938151 374.114923 778.846252 379.132632 778.846252 384.363895 
C 778.846252 389.595158 780.938151 394.612867 784.661232 398.311928 
C 788.384314 402.01099 793.434605 404.089393 798.699837 404.089393 
z
" clip-path="url(#p6439073c6e)" style="fill: #69b3a2; opacity: 0.3; stroke: #69b3a2; stroke-width: 2; stroke-linejoin: miter"/>
   </g>
   <g id="patch_11">
    <path d="M 180.88063 478.673786 
C 187.257192 478.673786 193.373445 476.156696 197.882355 471.676875 
C 202.391266 467.197055 204.924701 461.120261 204.924701 454.784838 
C 204.924701 448.449415 202.391266 442.372622 197.882355 437.892801 
C 193.373445 433.412981 187.257192 430.895891 180.88063 430.895891 
C 174.504068 430.895891 168.387815 433.412981 163.878904 437.892801 
C 159.369994 442.372622 156.836559 448.449415 156.836559 454.784838 
C 156.836559 461.120261 159.369994 467.197055 163.878904 471.676875 
C 168.387815 476.156696 174.504068 478.673786 180.88063 478.673786 
z
" clip-path="url(#p6439073c6e)" style="fill: #69b3a2; opacity: 0.3; stroke: #69b3a2; stroke-width: 2; stroke-linejoin: miter"/>
   </g>
   <g id="patch_12">
    <path d="M 288.86955 389.863091 
C 295.246113 389.863091 301.362366 387.346001 305.871276 382.86618 
C 310.380186 378.38636 312.913621 372.309566 312.913621 365.974143 
C 312.913621 359.63872 310.380186 353.561927 305.871276 349.082106 
C 301.362366 344.602286 295.246113 342.085196 288.86955 342.085196 
C 282.492988 342.085196 276.376735 344.602286 271.867825 349.082106 
C 267.358915 353.561927 264.82548 359.63872 264.82548 365.974143 
C 264.82548 372.309566 267.358915 378.38636 271.867825 382.86618 
C 276.376735 387.346001 282.492988 389.863091 288.86955 389.863091 
z
" clip-path="url(#p6439073c6e)" style="fill: #69b3a2; opacity: 0.3; stroke: #69b3a2; stroke-width: 2; stroke-linejoin: miter"/>
   </g>
   <g id="patch_13">
    <path d="M 184.332225 431.019122 
C 190.708787 431.019122 196.82504 428.502032 201.33395 424.022211 
C 205.84286 419.542391 208.376295 413.465597 208.376295 407.130174 
C 208.376295 400.794752 205.84286 394.717958 201.33395 390.238138 
C 196.82504 385.758317 190.708787 383.241227 184.332225 383.241227 
C 177.955663 383.241227 171.83941 385.758317 167.330499 390.238138 
C 162.821589 394.717958 160.288154 400.794752 160.288154 407.130174 
C 160.288154 413.465597 162.821589 419.542391 167.330499 424.022211 
C 171.83941 428.502032 177.955663 431.019122 184.332225 431.019122 
z
" clip-path="url(#p6439073c6e)" style="fill: #69b3a2; opacity: 0.3; stroke: #69b3a2; stroke-width: 2; stroke-linejoin: miter"/>
   </g>
   <g id="patch_14">
    <path d="M 585.867904 438.465276 
C 592.31647 438.465276 598.501788 435.919763 603.061613 431.389356 
C 607.621438 426.858949 610.183481 420.713536 610.183481 414.306574 
C 610.183481 407.899611 607.621438 401.754198 603.061613 397.223791 
C 598.501788 392.693385 592.31647 390.147871 585.867904 390.147871 
C 579.419337 390.147871 573.234019 392.693385 568.674194 397.223791 
C 564.114369 401.754198 561.552327 407.899611 561.552327 414.306574 
C 561.552327 420.713536 564.114369 426.858949 568.674194 431.389356 
C 573.234019 435.919763 579.419337 438.465276 585.867904 438.465276 
z
" clip-path="url(#p6439073c6e)" style="fill: #69b3a2; opacity: 0.3; stroke: #69b3a2; stroke-width: 2; stroke-linejoin: miter"/>
   </g>
   <g id="patch_15">
    <path d="M 721.575287 362.940641 
C 728.023854 362.940641 734.209172 360.395127 738.768997 355.864721 
C 743.328822 351.334314 745.890864 345.188901 745.890864 338.781938 
C 745.890864 332.374976 743.328822 326.229563 738.768997 321.699156 
C 734.209172 317.168749 728.023854 314.623236 721.575287 314.623236 
C 715.126721 314.623236 708.941403 317.168749 704.381578 321.699156 
C 699.821753 326.229563 697.259711 332.374976 697.259711 338.781938 
C 697.259711 345.188901 699.821753 351.334314 704.381578 355.864721 
C 708.941403 360.395127 715.126721 362.940641 721.575287 362.940641 
z
" clip-path="url(#p6439073c6e)" style="fill: #69b3a2; opacity: 0.3; stroke: #69b3a2; stroke-width: 2; stroke-linejoin: miter"/>
   </g>
   <g id="patch_16">
    <path d="M 750.829835 409.862235 
C 758.275998 409.862235 765.418188 406.922929 770.68342 401.691666 
C 775.948652 396.460403 778.907044 389.364292 778.907044 381.966169 
C 778.907044 374.568045 775.948652 367.471934 770.68342 362.240671 
C 765.418188 357.009408 758.275998 354.070102 750.829835 354.070102 
C 743.383672 354.070102 736.241482 357.009408 730.976249 362.240671 
C 725.711017 367.471934 722.752625 374.568045 722.752625 381.966169 
C 722.752625 389.364292 725.711017 396.460403 730.976249 401.691666 
C 736.241482 406.922929 743.383672 409.862235 750.829835 409.862235 
z
" clip-path="url(#p6439073c6e)" style="fill: #69b3a2; opacity: 0.3; stroke: #69b3a2; stroke-width: 2; stroke-linejoin: miter"/>
   </g>
   <g id="patch_17">
    <path d="M 339.170191 436.349061 
C 348.91055 436.349061 358.253281 432.504142 365.140755 425.661103 
C 372.02823 418.818064 375.898115 409.535609 375.898115 399.858091 
C 375.898115 390.180572 372.02823 380.898117 365.140755 374.055078 
C 358.253281 367.212039 348.91055 363.36712 339.170191 363.36712 
C 329.429831 363.36712 320.087101 367.212039 313.199626 374.055078 
C 306.312152 380.898117 302.442266 390.180572 302.442266 399.858091 
C 302.442266 409.535609 306.312152 418.818064 313.199626 425.661103 
C 320.087101 432.504142 329.429831 436.349061 339.170191 436.349061 
z
" clip-path="url(#p6439073c6e)" style="fill: #69b3a2; opacity: 0.3; stroke: #69b3a2; stroke-width: 2; stroke-linejoin: miter"/>
   </g>
   <g id="patch_18">
    <path d="M 669.486253 657.791784 
C 680.655498 657.791784 691.368783 653.382826 699.266631 645.535931 
C 707.16448 637.689036 711.602068 627.04487 711.602068 615.947685 
C 711.602068 604.8505 707.16448 594.206333 699.266631 586.359438 
C 691.368783 578.512543 680.655498 574.103585 669.486253 574.103585 
C 658.317009 574.103585 647.603724 578.512543 639.705875 586.359438 
C 631.808027 594.206333 627.370439 604.8505 627.370439 615.947685 
C 627.370439 627.04487 631.808027 637.689036 639.705875 645.535931 
C 647.603724 653.382826 658.317009 657.791784 669.486253 657.791784 
z
" clip-path="url(#p6439073c6e)" style="fill: #69b3a2; opacity: 0.3; stroke: #69b3a2; stroke-width: 2; stroke-linejoin: miter"/>
   </g>
   <g id="patch_19">
    <path d="M 258.965455 685.766267 
C 270.607411 685.766267 281.77411 681.17071 290.006217 672.991714 
C 298.238323 664.812718 302.863721 653.718062 302.863721 642.151215 
C 302.863721 630.584368 298.238323 619.489712 290.006217 611.310716 
C 281.77411 603.13172 270.607411 598.536163 258.965455 598.536163 
C 247.323499 598.536163 236.156799 603.13172 227.924693 611.310716 
C 219.692587 619.489712 215.067189 630.584368 215.067189 642.151215 
C 215.067189 653.718062 219.692587 664.812718 227.924693 672.991714 
C 236.156799 681.17071 247.323499 685.766267 258.965455 685.766267 
z
" clip-path="url(#p6439073c6e)" style="fill: #69b3a2; opacity: 0.3; stroke: #69b3a2; stroke-width: 2; stroke-linejoin: miter"/>
   </g>
   <g id="patch_20">
    <path d="M 256.415603 489.652008 
C 270.674029 489.652008 284.350387 484.023623 294.432616 474.00644 
C 304.514846 463.989257 310.179779 450.401134 310.179779 436.234697 
C 310.179779 422.068261 304.514846 408.480138 294.432616 398.462955 
C 284.350387 388.445771 270.674029 382.817386 256.415603 382.817386 
C 242.157176 382.817386 228.480819 388.445771 218.398589 398.462955 
C 208.316359 408.480138 202.651426 422.068261 202.651426 436.234697 
C 202.651426 450.401134 208.316359 463.989257 218.398589 474.00644 
C 228.480819 484.023623 242.157176 489.652008 256.415603 489.652008 
z
" clip-path="url(#p6439073c6e)" style="fill: #69b3a2; opacity: 0.3; stroke: #69b3a2; stroke-width: 2; stroke-linejoin: miter"/>
   </g>
   <g id="patch_21">
    <path d="M 666.723599 457.1158 
C 682.074258 457.1158 696.798259 451.056266 707.652814 440.271741 
C 718.507369 429.487216 724.60625 414.858207 724.60625 399.606585 
C 724.60625 384.354964 718.507369 369.725955 707.652814 358.94143 
C 696.798259 348.156905 682.074258 342.097371 666.723599 342.097371 
C 651.372941 342.097371 636.648939 348.156905 625.794384 358.94143 
C 614.93983 369.725955 608.840949 384.354964 608.840949 399.606585 
C 608.840949 414.858207 614.93983 429.487216 625.794384 440.271741 
C 636.648939 451.056266 651.372941 457.1158 666.723599 457.1158 
z
" clip-path="url(#p6439073c6e)" style="fill: #69b3a2; opacity: 0.3; stroke: #69b3a2; stroke-width: 2; stroke-linejoin: miter"/>
   </g>
   <g id="patch_22">
    <path d="M 200.901742 614.440872 
C 219.309291 614.440872 236.965393 607.174658 249.981496 594.24253 
C 262.997599 581.310402 270.310996 563.768211 270.310996 545.47942 
C 270.310996 527.19063 262.997599 509.648438 249.981496 496.71631 
C 236.965393 483.784182 219.309291 476.517969 200.901742 476.517969 
C 182.494193 476.517969 164.838092 483.784182 151.821989 496.71631 
C 138.805886 509.648438 131.492489 527.19063 131.492489 545.47942 
C 131.492489 563.768211 138.805886 581.310402 151.821989 594.24253 
C 164.838092 607.174658 182.494193 614.440872 200.901742 614.440872 
z
" clip-path="url(#p6439073c6e)" style="fill: #69b3a2; opacity: 0.3; stroke: #69b3a2; stroke-width: 2; stroke-linejoin: miter"/>
   </g>
   <g id="patch_23">
    <path d="M 596.220112 598.207518 
C 617.607587 598.207518 638.121966 589.765005 653.245195 574.739346 
C 668.368423 559.713686 676.865757 539.331659 676.865757 518.082167 
C 676.865757 496.832676 668.368423 476.450648 653.245195 461.424988 
C 638.121966 446.399329 617.607587 437.956816 596.220112 437.956816 
C 574.832637 437.956816 554.318258 446.399329 539.19503 461.424988 
C 524.071801 476.450648 515.574467 496.832676 515.574467 518.082167 
C 515.574467 539.331659 524.071801 559.713686 539.19503 574.739346 
C 554.318258 589.765005 574.832637 598.207518 596.220112 598.207518 
z
" clip-path="url(#p6439073c6e)" style="fill: #69b3a2; opacity: 0.3; stroke: #69b3a2; stroke-width: 2; stroke-linejoin: miter"/>
   </g>
   <g id="patch_24">
    <path d="M 791.776691 632.25174 
C 822.251426 632.25174 851.482098 620.222113 873.030991 598.812246 
C 894.579883 577.402379 906.687624 548.360292 906.687624 518.082167 
C 906.687624 487.804043 894.579883 458.761955 873.030991 437.352088 
C 851.482098 415.942221 822.251426 403.912595 791.776691 403.912595 
C 761.301955 403.912595 732.071283 415.942221 710.52239 437.352088 
C 688.973498 458.761955 676.865757 487.804043 676.865757 518.082167 
C 676.865757 548.360292 688.973498 577.402379 710.52239 598.812246 
C 732.071283 620.222113 761.301955 632.25174 791.776691 632.25174 
z
" clip-path="url(#p6439073c6e)" style="fill: #69b3a2; opacity: 0.3; stroke: #69b3a2; stroke-width: 2; stroke-linejoin: miter"/>
   </g>
   <g id="patch_25">
    <path d="M 388.102404 662.510884 
C 419.341051 662.510884 449.304449 650.179711 471.393508 628.233162 
C 493.482567 606.286613 505.893813 576.516527 505.893813 545.47942 
C 505.893813 514.442313 493.482567 484.672227 471.393508 462.725678 
C 449.304449 440.779129 419.341051 428.447956 388.102404 428.447956 
C 356.863758 428.447956 326.900359 440.779129 304.8113 462.725678 
C 282.722241 484.672227 270.310996 514.442313 270.310996 545.47942 
C 270.310996 576.516527 282.722241 606.286613 304.8113 628.233162 
C 326.900359 650.179711 356.863758 662.510884 388.102404 662.510884 
z
" clip-path="url(#p6439073c6e)" style="fill: #69b3a2; opacity: 0.3; stroke: #69b3a2; stroke-width: 2; stroke-linejoin: miter"/>
   </g>
   <g id="text_1">
    <!-- rs8176722 -->
    <g transform="translate(224.156915 369.234031) scale(0.1 -0.1)">
     <defs>
      <path id="DejaVuSans-72" d="M 2631 2963 
Q 2534 3019 2420 3045 
Q 2306 3072 2169 3072 
Q 1681 3072 1420 2755 
Q 1159 2438 1159 1844 
L 1159 0 
L 581 0 
L 581 3500 
L 1159 3500 
L 1159 2956 
Q 1341 3275 1631 3429 
Q 1922 3584 2338 3584 
Q 2397 3584 2469 3576 
Q 2541 3569 2628 3553 
L 2631 2963 
z
" transform="scale(0.015625)"/>
      <path id="DejaVuSans-73" d="M 2834 3397 
L 2834 2853 
Q 2591 2978 2328 3040 
Q 2066 3103 1784 3103 
Q 1356 3103 1142 2972 
Q 928 2841 928 2578 
Q 928 2378 1081 2264 
Q 1234 2150 1697 2047 
L 1894 2003 
Q 2506 1872 2764 1633 
Q 3022 1394 3022 966 
Q 3022 478 2636 193 
Q 2250 -91 1575 -91 
Q 1294 -91 989 -36 
Q 684 19 347 128 
L 347 722 
Q 666 556 975 473 
Q 1284 391 1588 391 
Q 1994 391 2212 530 
Q 2431 669 2431 922 
Q 2431 1156 2273 1281 
Q 2116 1406 1581 1522 
L 1381 1569 
Q 847 1681 609 1914 
Q 372 2147 372 2553 
Q 372 3047 722 3315 
Q 1072 3584 1716 3584 
Q 2034 3584 2315 3537 
Q 2597 3491 2834 3397 
z
" transform="scale(0.015625)"/>
      <path id="DejaVuSans-38" d="M 2034 2216 
Q 1584 2216 1326 1975 
Q 1069 1734 1069 1313 
Q 1069 891 1326 650 
Q 1584 409 2034 409 
Q 2484 409 2743 651 
Q 3003 894 3003 1313 
Q 3003 1734 2745 1975 
Q 2488 2216 2034 2216 
z
M 1403 2484 
Q 997 2584 770 2862 
Q 544 3141 544 3541 
Q 544 4100 942 4425 
Q 1341 4750 2034 4750 
Q 2731 4750 3128 4425 
Q 3525 4100 3525 3541 
Q 3525 3141 3298 2862 
Q 3072 2584 2669 2484 
Q 3125 2378 3379 2068 
Q 3634 1759 3634 1313 
Q 3634 634 3220 271 
Q 2806 -91 2034 -91 
Q 1263 -91 848 271 
Q 434 634 434 1313 
Q 434 1759 690 2068 
Q 947 2378 1403 2484 
z
M 1172 3481 
Q 1172 3119 1398 2916 
Q 1625 2713 2034 2713 
Q 2441 2713 2670 2916 
Q 2900 3119 2900 3481 
Q 2900 3844 2670 4047 
Q 2441 4250 2034 4250 
Q 1625 4250 1398 4047 
Q 1172 3844 1172 3481 
z
" transform="scale(0.015625)"/>
      <path id="DejaVuSans-31" d="M 794 531 
L 1825 531 
L 1825 4091 
L 703 3866 
L 703 4441 
L 1819 4666 
L 2450 4666 
L 2450 531 
L 3481 531 
L 3481 0 
L 794 0 
L 794 531 
z
" transform="scale(0.015625)"/>
      <path id="DejaVuSans-37" d="M 525 4666 
L 3525 4666 
L 3525 4397 
L 1831 0 
L 1172 0 
L 2766 4134 
L 525 4134 
L 525 4666 
z
" transform="scale(0.015625)"/>
      <path id="DejaVuSans-36" d="M 2113 2584 
Q 1688 2584 1439 2293 
Q 1191 2003 1191 1497 
Q 1191 994 1439 701 
Q 1688 409 2113 409 
Q 2538 409 2786 701 
Q 3034 994 3034 1497 
Q 3034 2003 2786 2293 
Q 2538 2584 2113 2584 
z
M 3366 4563 
L 3366 3988 
Q 3128 4100 2886 4159 
Q 2644 4219 2406 4219 
Q 1781 4219 1451 3797 
Q 1122 3375 1075 2522 
Q 1259 2794 1537 2939 
Q 1816 3084 2150 3084 
Q 2853 3084 3261 2657 
Q 3669 2231 3669 1497 
Q 3669 778 3244 343 
Q 2819 -91 2113 -91 
Q 1303 -91 875 529 
Q 447 1150 447 2328 
Q 447 3434 972 4092 
Q 1497 4750 2381 4750 
Q 2619 4750 2861 4703 
Q 3103 4656 3366 4563 
z
" transform="scale(0.015625)"/>
      <path id="DejaVuSans-32" d="M 1228 531 
L 3431 531 
L 3431 0 
L 469 0 
L 469 531 
Q 828 903 1448 1529 
Q 2069 2156 2228 2338 
Q 2531 2678 2651 2914 
Q 2772 3150 2772 3378 
Q 2772 3750 2511 3984 
Q 2250 4219 1831 4219 
Q 1534 4219 1204 4116 
Q 875 4013 500 3803 
L 500 4441 
Q 881 4594 1212 4672 
Q 1544 4750 1819 4750 
Q 2544 4750 2975 4387 
Q 3406 4025 3406 3419 
Q 3406 3131 3298 2873 
Q 3191 2616 2906 2266 
Q 2828 2175 2409 1742 
Q 1991 1309 1228 531 
z
" transform="scale(0.015625)"/>
     </defs>
     <use xlink:href="#DejaVuSans-72"/>
     <use xlink:href="#DejaVuSans-73" x="41.113281"/>
     <use xlink:href="#DejaVuSans-38" x="93.212891"/>
     <use xlink:href="#DejaVuSans-31" x="156.835938"/>
     <use xlink:href="#DejaVuSans-37" x="220.458984"/>
     <use xlink:href="#DejaVuSans-36" x="284.082031"/>
     <use xlink:href="#DejaVuSans-37" x="347.705078"/>
     <use xlink:href="#DejaVuSans-32" x="411.328125"/>
     <use xlink:href="#DejaVuSans-32" x="474.951172"/>
    </g>
   </g>
   <g id="text_2">
    <!-- rs8176741 -->
    <g transform="translate(187.179297 383.792008) scale(0.1 -0.1)">
     <defs>
      <path id="DejaVuSans-34" d="M 2419 4116 
L 825 1625 
L 2419 1625 
L 2419 4116 
z
M 2253 4666 
L 3047 4666 
L 3047 1625 
L 3713 1625 
L 3713 1100 
L 3047 1100 
L 3047 0 
L 2419 0 
L 2419 1100 
L 313 1100 
L 313 1709 
L 2253 4666 
z
" transform="scale(0.015625)"/>
     </defs>
     <use xlink:href="#DejaVuSans-72"/>
     <use xlink:href="#DejaVuSans-73" x="41.113281"/>
     <use xlink:href="#DejaVuSans-38" x="93.212891"/>
     <use xlink:href="#DejaVuSans-31" x="156.835938"/>
     <use xlink:href="#DejaVuSans-37" x="220.458984"/>
     <use xlink:href="#DejaVuSans-36" x="284.082031"/>
     <use xlink:href="#DejaVuSans-37" x="347.705078"/>
     <use xlink:href="#DejaVuSans-34" x="411.328125"/>
     <use xlink:href="#DejaVuSans-31" x="474.951172"/>
    </g>
   </g>
   <g id="text_3">
    <!-- rs8176704 -->
    <g transform="translate(571.17892 378.192387) scale(0.1 -0.1)">
     <defs>
      <path id="DejaVuSans-30" d="M 2034 4250 
Q 1547 4250 1301 3770 
Q 1056 3291 1056 2328 
Q 1056 1369 1301 889 
Q 1547 409 2034 409 
Q 2525 409 2770 889 
Q 3016 1369 3016 2328 
Q 3016 3291 2770 3770 
Q 2525 4250 2034 4250 
z
M 2034 4750 
Q 2819 4750 3233 4129 
Q 3647 3509 3647 2328 
Q 3647 1150 3233 529 
Q 2819 -91 2034 -91 
Q 1250 -91 836 529 
Q 422 1150 422 2328 
Q 422 3509 836 4129 
Q 1250 4750 2034 4750 
z
" transform="scale(0.015625)"/>
     </defs>
     <use xlink:href="#DejaVuSans-72"/>
     <use xlink:href="#DejaVuSans-73" x="41.113281"/>
     <use xlink:href="#DejaVuSans-38" x="93.212891"/>
     <use xlink:href="#DejaVuSans-31" x="156.835938"/>
     <use xlink:href="#DejaVuSans-37" x="220.458984"/>
     <use xlink:href="#DejaVuSans-36" x="284.082031"/>
     <use xlink:href="#DejaVuSans-37" x="347.705078"/>
     <use xlink:href="#DejaVuSans-30" x="411.328125"/>
     <use xlink:href="#DejaVuSans-34" x="474.951172"/>
    </g>
   </g>
   <g id="text_4">
    <!-- rs72238104 -->
    <g transform="translate(654.075968 330.287609) scale(0.1 -0.1)">
     <defs>
      <path id="DejaVuSans-33" d="M 2597 2516 
Q 3050 2419 3304 2112 
Q 3559 1806 3559 1356 
Q 3559 666 3084 287 
Q 2609 -91 1734 -91 
Q 1441 -91 1130 -33 
Q 819 25 488 141 
L 488 750 
Q 750 597 1062 519 
Q 1375 441 1716 441 
Q 2309 441 2620 675 
Q 2931 909 2931 1356 
Q 2931 1769 2642 2001 
Q 2353 2234 1838 2234 
L 1294 2234 
L 1294 2753 
L 1863 2753 
Q 2328 2753 2575 2939 
Q 2822 3125 2822 3475 
Q 2822 3834 2567 4026 
Q 2313 4219 1838 4219 
Q 1578 4219 1281 4162 
Q 984 4106 628 3988 
L 628 4550 
Q 988 4650 1302 4700 
Q 1616 4750 1894 4750 
Q 2613 4750 3031 4423 
Q 3450 4097 3450 3541 
Q 3450 3153 3228 2886 
Q 3006 2619 2597 2516 
z
" transform="scale(0.015625)"/>
     </defs>
     <use xlink:href="#DejaVuSans-72"/>
     <use xlink:href="#DejaVuSans-73" x="41.113281"/>
     <use xlink:href="#DejaVuSans-37" x="93.212891"/>
     <use xlink:href="#DejaVuSans-32" x="156.835938"/>
     <use xlink:href="#DejaVuSans-32" x="220.458984"/>
     <use xlink:href="#DejaVuSans-33" x="284.082031"/>
     <use xlink:href="#DejaVuSans-38" x="347.705078"/>
     <use xlink:href="#DejaVuSans-31" x="411.328125"/>
     <use xlink:href="#DejaVuSans-30" x="474.951172"/>
     <use xlink:href="#DejaVuSans-34" x="538.574219"/>
    </g>
   </g>
   <g id="text_5">
    <!-- rs529565 -->
    <g transform="translate(736.111094 341.094958) scale(0.1 -0.1)">
     <defs>
      <path id="DejaVuSans-35" d="M 691 4666 
L 3169 4666 
L 3169 4134 
L 1269 4134 
L 1269 2991 
Q 1406 3038 1543 3061 
Q 1681 3084 1819 3084 
Q 2600 3084 3056 2656 
Q 3513 2228 3513 1497 
Q 3513 744 3044 326 
Q 2575 -91 1722 -91 
Q 1428 -91 1123 -41 
Q 819 9 494 109 
L 494 744 
Q 775 591 1075 516 
Q 1375 441 1709 441 
Q 2250 441 2565 725 
Q 2881 1009 2881 1497 
Q 2881 1984 2565 2268 
Q 2250 2553 1709 2553 
Q 1456 2553 1204 2497 
Q 953 2441 691 2322 
L 691 4666 
z
" transform="scale(0.015625)"/>
      <path id="DejaVuSans-39" d="M 703 97 
L 703 672 
Q 941 559 1184 500 
Q 1428 441 1663 441 
Q 2288 441 2617 861 
Q 2947 1281 2994 2138 
Q 2813 1869 2534 1725 
Q 2256 1581 1919 1581 
Q 1219 1581 811 2004 
Q 403 2428 403 3163 
Q 403 3881 828 4315 
Q 1253 4750 1959 4750 
Q 2769 4750 3195 4129 
Q 3622 3509 3622 2328 
Q 3622 1225 3098 567 
Q 2575 -91 1691 -91 
Q 1453 -91 1209 -44 
Q 966 3 703 97 
z
M 1959 2075 
Q 2384 2075 2632 2365 
Q 2881 2656 2881 3163 
Q 2881 3666 2632 3958 
Q 2384 4250 1959 4250 
Q 1534 4250 1286 3958 
Q 1038 3666 1038 3163 
Q 1038 2656 1286 2365 
Q 1534 2075 1959 2075 
z
" transform="scale(0.015625)"/>
     </defs>
     <use xlink:href="#DejaVuSans-72"/>
     <use xlink:href="#DejaVuSans-73" x="41.113281"/>
     <use xlink:href="#DejaVuSans-35" x="93.212891"/>
     <use xlink:href="#DejaVuSans-32" x="156.835938"/>
     <use xlink:href="#DejaVuSans-39" x="220.458984"/>
     <use xlink:href="#DejaVuSans-35" x="284.082031"/>
     <use xlink:href="#DejaVuSans-36" x="347.705078"/>
     <use xlink:href="#DejaVuSans-35" x="411.328125"/>
    </g>
   </g>
   <g id="text_6">
    <!-- rs8176693 -->
    <g transform="translate(758.03903 353.578073) scale(0.1 -0.1)">
     <use xlink:href="#DejaVuSans-72"/>
     <use xlink:href="#DejaVuSans-73" x="41.113281"/>
     <use xlink:href="#DejaVuSans-38" x="93.212891"/>
     <use xlink:href="#DejaVuSans-31" x="156.835938"/>
     <use xlink:href="#DejaVuSans-37" x="220.458984"/>
     <use xlink:href="#DejaVuSans-36" x="284.082031"/>
     <use xlink:href="#DejaVuSans-36" x="347.705078"/>
     <use xlink:href="#DejaVuSans-39" x="411.328125"/>
     <use xlink:href="#DejaVuSans-33" x="474.951172"/>
    </g>
   </g>
   <g id="text_7">
    <!-- rs8176645 -->
    <g transform="translate(771.770931 384.363895) scale(0.1 -0.1)">
     <use xlink:href="#DejaVuSans-72"/>
     <use xlink:href="#DejaVuSans-73" x="41.113281"/>
     <use xlink:href="#DejaVuSans-38" x="93.212891"/>
     <use xlink:href="#DejaVuSans-31" x="156.835938"/>
     <use xlink:href="#DejaVuSans-37" x="220.458984"/>
     <use xlink:href="#DejaVuSans-36" x="284.082031"/>
     <use xlink:href="#DejaVuSans-36" x="347.705078"/>
     <use xlink:href="#DejaVuSans-34" x="411.328125"/>
     <use xlink:href="#DejaVuSans-35" x="474.951172"/>
    </g>
   </g>
   <g id="text_8">
    <!-- rs7853989 -->
    <g transform="translate(153.951724 454.784838) scale(0.1 -0.1)">
     <use xlink:href="#DejaVuSans-72"/>
     <use xlink:href="#DejaVuSans-73" x="41.113281"/>
     <use xlink:href="#DejaVuSans-37" x="93.212891"/>
     <use xlink:href="#DejaVuSans-38" x="156.835938"/>
     <use xlink:href="#DejaVuSans-35" x="220.458984"/>
     <use xlink:href="#DejaVuSans-33" x="284.082031"/>
     <use xlink:href="#DejaVuSans-39" x="347.705078"/>
     <use xlink:href="#DejaVuSans-38" x="411.328125"/>
     <use xlink:href="#DejaVuSans-39" x="474.951172"/>
    </g>
   </g>
   <g id="text_9">
    <!-- rs8176720 -->
    <g transform="translate(261.940644 365.974143) scale(0.1 -0.1)">
     <use xlink:href="#DejaVuSans-72"/>
     <use xlink:href="#DejaVuSans-73" x="41.113281"/>
     <use xlink:href="#DejaVuSans-38" x="93.212891"/>
     <use xlink:href="#DejaVuSans-31" x="156.835938"/>
     <use xlink:href="#DejaVuSans-37" x="220.458984"/>
     <use xlink:href="#DejaVuSans-36" x="284.082031"/>
     <use xlink:href="#DejaVuSans-37" x="347.705078"/>
     <use xlink:href="#DejaVuSans-32" x="411.328125"/>
     <use xlink:href="#DejaVuSans-30" x="474.951172"/>
    </g>
   </g>
   <g id="text_10">
    <!-- rs8176672 -->
    <g transform="translate(157.403318 407.130174) scale(0.1 -0.1)">
     <use xlink:href="#DejaVuSans-72"/>
     <use xlink:href="#DejaVuSans-73" x="41.113281"/>
     <use xlink:href="#DejaVuSans-38" x="93.212891"/>
     <use xlink:href="#DejaVuSans-31" x="156.835938"/>
     <use xlink:href="#DejaVuSans-37" x="220.458984"/>
     <use xlink:href="#DejaVuSans-36" x="284.082031"/>
     <use xlink:href="#DejaVuSans-36" x="347.705078"/>
     <use xlink:href="#DejaVuSans-37" x="411.328125"/>
     <use xlink:href="#DejaVuSans-32" x="474.951172"/>
    </g>
   </g>
   <g id="text_11">
    <!-- rs657152 -->
    <g transform="translate(562.120248 414.306574) scale(0.1 -0.1)">
     <use xlink:href="#DejaVuSans-72"/>
     <use xlink:href="#DejaVuSans-73" x="41.113281"/>
     <use xlink:href="#DejaVuSans-36" x="93.212891"/>
     <use xlink:href="#DejaVuSans-35" x="156.835938"/>
     <use xlink:href="#DejaVuSans-37" x="220.458984"/>
     <use xlink:href="#DejaVuSans-31" x="284.082031"/>
     <use xlink:href="#DejaVuSans-35" x="347.705078"/>
     <use xlink:href="#DejaVuSans-32" x="411.328125"/>
    </g>
   </g>
   <g id="text_12">
    <!-- rs612169 -->
    <g transform="translate(697.827631 338.781938) scale(0.1 -0.1)">
     <use xlink:href="#DejaVuSans-72"/>
     <use xlink:href="#DejaVuSans-73" x="41.113281"/>
     <use xlink:href="#DejaVuSans-36" x="93.212891"/>
     <use xlink:href="#DejaVuSans-31" x="156.835938"/>
     <use xlink:href="#DejaVuSans-32" x="220.458984"/>
     <use xlink:href="#DejaVuSans-31" x="284.082031"/>
     <use xlink:href="#DejaVuSans-36" x="347.705078"/>
     <use xlink:href="#DejaVuSans-39" x="411.328125"/>
    </g>
   </g>
   <g id="text_13">
    <!-- rs514659 -->
    <g transform="translate(727.082178 381.966169) scale(0.1 -0.1)">
     <use xlink:href="#DejaVuSans-72"/>
     <use xlink:href="#DejaVuSans-73" x="41.113281"/>
     <use xlink:href="#DejaVuSans-35" x="93.212891"/>
     <use xlink:href="#DejaVuSans-31" x="156.835938"/>
     <use xlink:href="#DejaVuSans-34" x="220.458984"/>
     <use xlink:href="#DejaVuSans-36" x="284.082031"/>
     <use xlink:href="#DejaVuSans-35" x="347.705078"/>
     <use xlink:href="#DejaVuSans-39" x="411.328125"/>
    </g>
   </g>
   <g id="text_14">
    <!-- rs8176743 -->
    <g transform="translate(312.241285 399.858091) scale(0.1 -0.1)">
     <use xlink:href="#DejaVuSans-72"/>
     <use xlink:href="#DejaVuSans-73" x="41.113281"/>
     <use xlink:href="#DejaVuSans-38" x="93.212891"/>
     <use xlink:href="#DejaVuSans-31" x="156.835938"/>
     <use xlink:href="#DejaVuSans-37" x="220.458984"/>
     <use xlink:href="#DejaVuSans-36" x="284.082031"/>
     <use xlink:href="#DejaVuSans-37" x="347.705078"/>
     <use xlink:href="#DejaVuSans-34" x="411.328125"/>
     <use xlink:href="#DejaVuSans-33" x="474.951172"/>
    </g>
   </g>
   <g id="text_15">
    <!-- unclear -->
    <g transform="translate(650.814378 615.947685) scale(0.1 -0.1)">
     <defs>
      <path id="DejaVuSans-75" d="M 544 1381 
L 544 3500 
L 1119 3500 
L 1119 1403 
Q 1119 906 1312 657 
Q 1506 409 1894 409 
Q 2359 409 2629 706 
Q 2900 1003 2900 1516 
L 2900 3500 
L 3475 3500 
L 3475 0 
L 2900 0 
L 2900 538 
Q 2691 219 2414 64 
Q 2138 -91 1772 -91 
Q 1169 -91 856 284 
Q 544 659 544 1381 
z
M 1991 3584 
L 1991 3584 
z
" transform="scale(0.015625)"/>
      <path id="DejaVuSans-6e" d="M 3513 2113 
L 3513 0 
L 2938 0 
L 2938 2094 
Q 2938 2591 2744 2837 
Q 2550 3084 2163 3084 
Q 1697 3084 1428 2787 
Q 1159 2491 1159 1978 
L 1159 0 
L 581 0 
L 581 3500 
L 1159 3500 
L 1159 2956 
Q 1366 3272 1645 3428 
Q 1925 3584 2291 3584 
Q 2894 3584 3203 3211 
Q 3513 2838 3513 2113 
z
" transform="scale(0.015625)"/>
      <path id="DejaVuSans-63" d="M 3122 3366 
L 3122 2828 
Q 2878 2963 2633 3030 
Q 2388 3097 2138 3097 
Q 1578 3097 1268 2742 
Q 959 2388 959 1747 
Q 959 1106 1268 751 
Q 1578 397 2138 397 
Q 2388 397 2633 464 
Q 2878 531 3122 666 
L 3122 134 
Q 2881 22 2623 -34 
Q 2366 -91 2075 -91 
Q 1284 -91 818 406 
Q 353 903 353 1747 
Q 353 2603 823 3093 
Q 1294 3584 2113 3584 
Q 2378 3584 2631 3529 
Q 2884 3475 3122 3366 
z
" transform="scale(0.015625)"/>
      <path id="DejaVuSans-6c" d="M 603 4863 
L 1178 4863 
L 1178 0 
L 603 0 
L 603 4863 
z
" transform="scale(0.015625)"/>
      <path id="DejaVuSans-65" d="M 3597 1894 
L 3597 1613 
L 953 1613 
Q 991 1019 1311 708 
Q 1631 397 2203 397 
Q 2534 397 2845 478 
Q 3156 559 3463 722 
L 3463 178 
Q 3153 47 2828 -22 
Q 2503 -91 2169 -91 
Q 1331 -91 842 396 
Q 353 884 353 1716 
Q 353 2575 817 3079 
Q 1281 3584 2069 3584 
Q 2775 3584 3186 3129 
Q 3597 2675 3597 1894 
z
M 3022 2063 
Q 3016 2534 2758 2815 
Q 2500 3097 2075 3097 
Q 1594 3097 1305 2825 
Q 1016 2553 972 2059 
L 3022 2063 
z
" transform="scale(0.015625)"/>
      <path id="DejaVuSans-61" d="M 2194 1759 
Q 1497 1759 1228 1600 
Q 959 1441 959 1056 
Q 959 750 1161 570 
Q 1363 391 1709 391 
Q 2188 391 2477 730 
Q 2766 1069 2766 1631 
L 2766 1759 
L 2194 1759 
z
M 3341 1997 
L 3341 0 
L 2766 0 
L 2766 531 
Q 2569 213 2275 61 
Q 1981 -91 1556 -91 
Q 1019 -91 701 211 
Q 384 513 384 1019 
Q 384 1609 779 1909 
Q 1175 2209 1959 2209 
L 2766 2209 
L 2766 2266 
Q 2766 2663 2505 2880 
Q 2244 3097 1772 3097 
Q 1472 3097 1187 3025 
Q 903 2953 641 2809 
L 641 3341 
Q 956 3463 1253 3523 
Q 1550 3584 1831 3584 
Q 2591 3584 2966 3190 
Q 3341 2797 3341 1997 
z
" transform="scale(0.015625)"/>
     </defs>
     <use xlink:href="#DejaVuSans-75"/>
     <use xlink:href="#DejaVuSans-6e" x="63.378906"/>
     <use xlink:href="#DejaVuSans-63" x="126.757812"/>
     <use xlink:href="#DejaVuSans-6c" x="181.738281"/>
     <use xlink:href="#DejaVuSans-65" x="209.521484"/>
     <use xlink:href="#DejaVuSans-61" x="271.044922"/>
     <use xlink:href="#DejaVuSans-72" x="332.324219"/>
    </g>
   </g>
   <g id="text_16">
    <!-- unclear -->
    <g transform="translate(240.29358 642.151215) scale(0.1 -0.1)">
     <use xlink:href="#DejaVuSans-75"/>
     <use xlink:href="#DejaVuSans-6e" x="63.378906"/>
     <use xlink:href="#DejaVuSans-63" x="126.757812"/>
     <use xlink:href="#DejaVuSans-6c" x="181.738281"/>
     <use xlink:href="#DejaVuSans-65" x="209.521484"/>
     <use xlink:href="#DejaVuSans-61" x="271.044922"/>
     <use xlink:href="#DejaVuSans-72" x="332.324219"/>
    </g>
   </g>
   <g id="text_17">
    <!-- rs8176749 -->
    <g transform="translate(229.486696 436.234697) scale(0.1 -0.1)">
     <use xlink:href="#DejaVuSans-72"/>
     <use xlink:href="#DejaVuSans-73" x="41.113281"/>
     <use xlink:href="#DejaVuSans-38" x="93.212891"/>
     <use xlink:href="#DejaVuSans-31" x="156.835938"/>
     <use xlink:href="#DejaVuSans-37" x="220.458984"/>
     <use xlink:href="#DejaVuSans-36" x="284.082031"/>
     <use xlink:href="#DejaVuSans-37" x="347.705078"/>
     <use xlink:href="#DejaVuSans-34" x="411.328125"/>
     <use xlink:href="#DejaVuSans-39" x="474.951172"/>
    </g>
   </g>
   <g id="text_18">
    <!-- rs687289 -->
    <g transform="translate(642.975943 399.606585) scale(0.1 -0.1)">
     <use xlink:href="#DejaVuSans-72"/>
     <use xlink:href="#DejaVuSans-73" x="41.113281"/>
     <use xlink:href="#DejaVuSans-36" x="93.212891"/>
     <use xlink:href="#DejaVuSans-38" x="156.835938"/>
     <use xlink:href="#DejaVuSans-37" x="220.458984"/>
     <use xlink:href="#DejaVuSans-32" x="284.082031"/>
     <use xlink:href="#DejaVuSans-38" x="347.705078"/>
     <use xlink:href="#DejaVuSans-39" x="411.328125"/>
    </g>
   </g>
   <g id="text_19">
    <!-- rs8176747 -->
    <g transform="translate(173.972836 545.47942) scale(0.1 -0.1)">
     <use xlink:href="#DejaVuSans-72"/>
     <use xlink:href="#DejaVuSans-73" x="41.113281"/>
     <use xlink:href="#DejaVuSans-38" x="93.212891"/>
     <use xlink:href="#DejaVuSans-31" x="156.835938"/>
     <use xlink:href="#DejaVuSans-37" x="220.458984"/>
     <use xlink:href="#DejaVuSans-36" x="284.082031"/>
     <use xlink:href="#DejaVuSans-37" x="347.705078"/>
     <use xlink:href="#DejaVuSans-34" x="411.328125"/>
     <use xlink:href="#DejaVuSans-37" x="474.951172"/>
    </g>
   </g>
   <g id="text_20">
    <!-- rs505922 -->
    <g transform="translate(572.472456 518.082167) scale(0.1 -0.1)">
     <use xlink:href="#DejaVuSans-72"/>
     <use xlink:href="#DejaVuSans-73" x="41.113281"/>
     <use xlink:href="#DejaVuSans-35" x="93.212891"/>
     <use xlink:href="#DejaVuSans-30" x="156.835938"/>
     <use xlink:href="#DejaVuSans-35" x="220.458984"/>
     <use xlink:href="#DejaVuSans-39" x="284.082031"/>
     <use xlink:href="#DejaVuSans-32" x="347.705078"/>
     <use xlink:href="#DejaVuSans-32" x="411.328125"/>
    </g>
   </g>
   <g id="text_21">
    <!-- rs8176719 -->
    <g transform="translate(764.847784 518.082167) scale(0.1 -0.1)">
     <use xlink:href="#DejaVuSans-72"/>
     <use xlink:href="#DejaVuSans-73" x="41.113281"/>
     <use xlink:href="#DejaVuSans-38" x="93.212891"/>
     <use xlink:href="#DejaVuSans-31" x="156.835938"/>
     <use xlink:href="#DejaVuSans-37" x="220.458984"/>
     <use xlink:href="#DejaVuSans-36" x="284.082031"/>
     <use xlink:href="#DejaVuSans-37" x="347.705078"/>
     <use xlink:href="#DejaVuSans-31" x="411.328125"/>
     <use xlink:href="#DejaVuSans-39" x="474.951172"/>
    </g>
   </g>
   <g id="text_22">
    <!-- rs8176746 -->
    <g transform="translate(361.173498 545.47942) scale(0.1 -0.1)">
     <use xlink:href="#DejaVuSans-72"/>
     <use xlink:href="#DejaVuSans-73" x="41.113281"/>
     <use xlink:href="#DejaVuSans-38" x="93.212891"/>
     <use xlink:href="#DejaVuSans-31" x="156.835938"/>
     <use xlink:href="#DejaVuSans-37" x="220.458984"/>
     <use xlink:href="#DejaVuSans-36" x="284.082031"/>
     <use xlink:href="#DejaVuSans-37" x="347.705078"/>
     <use xlink:href="#DejaVuSans-34" x="411.328125"/>
     <use xlink:href="#DejaVuSans-36" x="474.951172"/>
    </g>
   </g>
   <g id="text_23">
    <g id="patch_26">
     <path d="M 312.072282 523.879063 
L 329.142594 523.879063 
Q 339.142594 523.879063 339.142594 513.879063 
L 339.142594 504.200938 
Q 339.142594 494.200938 329.142594 494.200938 
L 312.072282 494.200938 
Q 302.072282 494.200938 302.072282 504.200938 
L 302.072282 513.879063 
Q 302.072282 523.879063 312.072282 523.879063 
z
" style="fill: #ffffff; stroke: #000000; stroke-linejoin: miter"/>
    </g>
    <!-- A/B -->
    <g transform="translate(312.072282 511.799375) scale(0.1 -0.1)">
     <defs>
      <path id="DejaVuSans-41" d="M 2188 4044 
L 1331 1722 
L 3047 1722 
L 2188 4044 
z
M 1831 4666 
L 2547 4666 
L 4325 0 
L 3669 0 
L 3244 1197 
L 1141 1197 
L 716 0 
L 50 0 
L 1831 4666 
z
" transform="scale(0.015625)"/>
      <path id="DejaVuSans-2f" d="M 1625 4666 
L 2156 4666 
L 531 -594 
L 0 -594 
L 1625 4666 
z
" transform="scale(0.015625)"/>
      <path id="DejaVuSans-42" d="M 1259 2228 
L 1259 519 
L 2272 519 
Q 2781 519 3026 730 
Q 3272 941 3272 1375 
Q 3272 1813 3026 2020 
Q 2781 2228 2272 2228 
L 1259 2228 
z
M 1259 4147 
L 1259 2741 
L 2194 2741 
Q 2656 2741 2882 2914 
Q 3109 3088 3109 3444 
Q 3109 3797 2882 3972 
Q 2656 4147 2194 4147 
L 1259 4147 
z
M 628 4666 
L 2241 4666 
Q 2963 4666 3353 4366 
Q 3744 4066 3744 3513 
Q 3744 3084 3544 2831 
Q 3344 2578 2956 2516 
Q 3422 2416 3680 2098 
Q 3938 1781 3938 1306 
Q 3938 681 3513 340 
Q 3088 0 2303 0 
L 628 0 
L 628 4666 
z
" transform="scale(0.015625)"/>
     </defs>
     <use xlink:href="#DejaVuSans-41"/>
     <use xlink:href="#DejaVuSans-2f" x="68.408203"/>
     <use xlink:href="#DejaVuSans-42" x="102.099609"/>
    </g>
   </g>
   <g id="text_24">
    <g id="patch_27">
     <path d="M 707.271501 523.879063 
L 715.143376 523.879063 
Q 725.143376 523.879063 725.143376 513.879063 
L 725.143376 504.200938 
Q 725.143376 494.200938 715.143376 494.200938 
L 707.271501 494.200938 
Q 697.271501 494.200938 697.271501 504.200938 
L 697.271501 513.879063 
Q 697.271501 523.879063 707.271501 523.879063 
z
" style="fill: #ffffff; stroke: #000000; stroke-linejoin: miter"/>
    </g>
    <!-- O -->
    <g transform="translate(707.271501 511.799375) scale(0.1 -0.1)">
     <defs>
      <path id="DejaVuSans-4f" d="M 2522 4238 
Q 1834 4238 1429 3725 
Q 1025 3213 1025 2328 
Q 1025 1447 1429 934 
Q 1834 422 2522 422 
Q 3209 422 3611 934 
Q 4013 1447 4013 2328 
Q 4013 3213 3611 3725 
Q 3209 4238 2522 4238 
z
M 2522 4750 
Q 3503 4750 4090 4092 
Q 4678 3434 4678 2328 
Q 4678 1225 4090 567 
Q 3503 -91 2522 -91 
Q 1538 -91 948 565 
Q 359 1222 359 2328 
Q 359 3434 948 4092 
Q 1538 4750 2522 4750 
z
" transform="scale(0.015625)"/>
     </defs>
     <use xlink:href="#DejaVuSans-4f"/>
    </g>
   </g>
   <g id="text_25">
    <!-- SNPs Used for ABO Bloodtyping -->
    <g transform="translate(422.003438 114.96) scale(0.12 -0.12)">
     <defs>
      <path id="DejaVuSans-53" d="M 3425 4513 
L 3425 3897 
Q 3066 4069 2747 4153 
Q 2428 4238 2131 4238 
Q 1616 4238 1336 4038 
Q 1056 3838 1056 3469 
Q 1056 3159 1242 3001 
Q 1428 2844 1947 2747 
L 2328 2669 
Q 3034 2534 3370 2195 
Q 3706 1856 3706 1288 
Q 3706 609 3251 259 
Q 2797 -91 1919 -91 
Q 1588 -91 1214 -16 
Q 841 59 441 206 
L 441 856 
Q 825 641 1194 531 
Q 1563 422 1919 422 
Q 2459 422 2753 634 
Q 3047 847 3047 1241 
Q 3047 1584 2836 1778 
Q 2625 1972 2144 2069 
L 1759 2144 
Q 1053 2284 737 2584 
Q 422 2884 422 3419 
Q 422 4038 858 4394 
Q 1294 4750 2059 4750 
Q 2388 4750 2728 4690 
Q 3069 4631 3425 4513 
z
" transform="scale(0.015625)"/>
      <path id="DejaVuSans-4e" d="M 628 4666 
L 1478 4666 
L 3547 763 
L 3547 4666 
L 4159 4666 
L 4159 0 
L 3309 0 
L 1241 3903 
L 1241 0 
L 628 0 
L 628 4666 
z
" transform="scale(0.015625)"/>
      <path id="DejaVuSans-50" d="M 1259 4147 
L 1259 2394 
L 2053 2394 
Q 2494 2394 2734 2622 
Q 2975 2850 2975 3272 
Q 2975 3691 2734 3919 
Q 2494 4147 2053 4147 
L 1259 4147 
z
M 628 4666 
L 2053 4666 
Q 2838 4666 3239 4311 
Q 3641 3956 3641 3272 
Q 3641 2581 3239 2228 
Q 2838 1875 2053 1875 
L 1259 1875 
L 1259 0 
L 628 0 
L 628 4666 
z
" transform="scale(0.015625)"/>
      <path id="DejaVuSans-20" transform="scale(0.015625)"/>
      <path id="DejaVuSans-55" d="M 556 4666 
L 1191 4666 
L 1191 1831 
Q 1191 1081 1462 751 
Q 1734 422 2344 422 
Q 2950 422 3222 751 
Q 3494 1081 3494 1831 
L 3494 4666 
L 4128 4666 
L 4128 1753 
Q 4128 841 3676 375 
Q 3225 -91 2344 -91 
Q 1459 -91 1007 375 
Q 556 841 556 1753 
L 556 4666 
z
" transform="scale(0.015625)"/>
      <path id="DejaVuSans-64" d="M 2906 2969 
L 2906 4863 
L 3481 4863 
L 3481 0 
L 2906 0 
L 2906 525 
Q 2725 213 2448 61 
Q 2172 -91 1784 -91 
Q 1150 -91 751 415 
Q 353 922 353 1747 
Q 353 2572 751 3078 
Q 1150 3584 1784 3584 
Q 2172 3584 2448 3432 
Q 2725 3281 2906 2969 
z
M 947 1747 
Q 947 1113 1208 752 
Q 1469 391 1925 391 
Q 2381 391 2643 752 
Q 2906 1113 2906 1747 
Q 2906 2381 2643 2742 
Q 2381 3103 1925 3103 
Q 1469 3103 1208 2742 
Q 947 2381 947 1747 
z
" transform="scale(0.015625)"/>
      <path id="DejaVuSans-66" d="M 2375 4863 
L 2375 4384 
L 1825 4384 
Q 1516 4384 1395 4259 
Q 1275 4134 1275 3809 
L 1275 3500 
L 2222 3500 
L 2222 3053 
L 1275 3053 
L 1275 0 
L 697 0 
L 697 3053 
L 147 3053 
L 147 3500 
L 697 3500 
L 697 3744 
Q 697 4328 969 4595 
Q 1241 4863 1831 4863 
L 2375 4863 
z
" transform="scale(0.015625)"/>
      <path id="DejaVuSans-6f" d="M 1959 3097 
Q 1497 3097 1228 2736 
Q 959 2375 959 1747 
Q 959 1119 1226 758 
Q 1494 397 1959 397 
Q 2419 397 2687 759 
Q 2956 1122 2956 1747 
Q 2956 2369 2687 2733 
Q 2419 3097 1959 3097 
z
M 1959 3584 
Q 2709 3584 3137 3096 
Q 3566 2609 3566 1747 
Q 3566 888 3137 398 
Q 2709 -91 1959 -91 
Q 1206 -91 779 398 
Q 353 888 353 1747 
Q 353 2609 779 3096 
Q 1206 3584 1959 3584 
z
" transform="scale(0.015625)"/>
      <path id="DejaVuSans-74" d="M 1172 4494 
L 1172 3500 
L 2356 3500 
L 2356 3053 
L 1172 3053 
L 1172 1153 
Q 1172 725 1289 603 
Q 1406 481 1766 481 
L 2356 481 
L 2356 0 
L 1766 0 
Q 1100 0 847 248 
Q 594 497 594 1153 
L 594 3053 
L 172 3053 
L 172 3500 
L 594 3500 
L 594 4494 
L 1172 4494 
z
" transform="scale(0.015625)"/>
      <path id="DejaVuSans-79" d="M 2059 -325 
Q 1816 -950 1584 -1140 
Q 1353 -1331 966 -1331 
L 506 -1331 
L 506 -850 
L 844 -850 
Q 1081 -850 1212 -737 
Q 1344 -625 1503 -206 
L 1606 56 
L 191 3500 
L 800 3500 
L 1894 763 
L 2988 3500 
L 3597 3500 
L 2059 -325 
z
" transform="scale(0.015625)"/>
      <path id="DejaVuSans-70" d="M 1159 525 
L 1159 -1331 
L 581 -1331 
L 581 3500 
L 1159 3500 
L 1159 2969 
Q 1341 3281 1617 3432 
Q 1894 3584 2278 3584 
Q 2916 3584 3314 3078 
Q 3713 2572 3713 1747 
Q 3713 922 3314 415 
Q 2916 -91 2278 -91 
Q 1894 -91 1617 61 
Q 1341 213 1159 525 
z
M 3116 1747 
Q 3116 2381 2855 2742 
Q 2594 3103 2138 3103 
Q 1681 3103 1420 2742 
Q 1159 2381 1159 1747 
Q 1159 1113 1420 752 
Q 1681 391 2138 391 
Q 2594 391 2855 752 
Q 3116 1113 3116 1747 
z
" transform="scale(0.015625)"/>
      <path id="DejaVuSans-69" d="M 603 3500 
L 1178 3500 
L 1178 0 
L 603 0 
L 603 3500 
z
M 603 4863 
L 1178 4863 
L 1178 4134 
L 603 4134 
L 603 4863 
z
" transform="scale(0.015625)"/>
      <path id="DejaVuSans-67" d="M 2906 1791 
Q 2906 2416 2648 2759 
Q 2391 3103 1925 3103 
Q 1463 3103 1205 2759 
Q 947 2416 947 1791 
Q 947 1169 1205 825 
Q 1463 481 1925 481 
Q 2391 481 2648 825 
Q 2906 1169 2906 1791 
z
M 3481 434 
Q 3481 -459 3084 -895 
Q 2688 -1331 1869 -1331 
Q 1566 -1331 1297 -1286 
Q 1028 -1241 775 -1147 
L 775 -588 
Q 1028 -725 1275 -790 
Q 1522 -856 1778 -856 
Q 2344 -856 2625 -561 
Q 2906 -266 2906 331 
L 2906 616 
Q 2728 306 2450 153 
Q 2172 0 1784 0 
Q 1141 0 747 490 
Q 353 981 353 1791 
Q 353 2603 747 3093 
Q 1141 3584 1784 3584 
Q 2172 3584 2450 3431 
Q 2728 3278 2906 2969 
L 2906 3500 
L 3481 3500 
L 3481 434 
z
" transform="scale(0.015625)"/>
     </defs>
     <use xlink:href="#DejaVuSans-53"/>
     <use xlink:href="#DejaVuSans-4e" x="63.476562"/>
     <use xlink:href="#DejaVuSans-50" x="138.28125"/>
     <use xlink:href="#DejaVuSans-73" x="196.833984"/>
     <use xlink:href="#DejaVuSans-20" x="248.933594"/>
     <use xlink:href="#DejaVuSans-55" x="280.720703"/>
     <use xlink:href="#DejaVuSans-73" x="353.914062"/>
     <use xlink:href="#DejaVuSans-65" x="406.013672"/>
     <use xlink:href="#DejaVuSans-64" x="467.537109"/>
     <use xlink:href="#DejaVuSans-20" x="531.013672"/>
     <use xlink:href="#DejaVuSans-66" x="562.800781"/>
     <use xlink:href="#DejaVuSans-6f" x="598.005859"/>
     <use xlink:href="#DejaVuSans-72" x="659.1875"/>
     <use xlink:href="#DejaVuSans-20" x="700.300781"/>
     <use xlink:href="#DejaVuSans-41" x="732.087891"/>
     <use xlink:href="#DejaVuSans-42" x="800.496094"/>
     <use xlink:href="#DejaVuSans-4f" x="867.349609"/>
     <use xlink:href="#DejaVuSans-20" x="946.060547"/>
     <use xlink:href="#DejaVuSans-42" x="977.847656"/>
     <use xlink:href="#DejaVuSans-6c" x="1046.451172"/>
     <use xlink:href="#DejaVuSans-6f" x="1074.234375"/>
     <use xlink:href="#DejaVuSans-6f" x="1135.416016"/>
     <use xlink:href="#DejaVuSans-64" x="1196.597656"/>
     <use xlink:href="#DejaVuSans-74" x="1260.074219"/>
     <use xlink:href="#DejaVuSans-79" x="1299.283203"/>
     <use xlink:href="#DejaVuSans-70" x="1358.462891"/>
     <use xlink:href="#DejaVuSans-69" x="1421.939453"/>
     <use xlink:href="#DejaVuSans-6e" x="1449.722656"/>
     <use xlink:href="#DejaVuSans-67" x="1513.101562"/>
    </g>
   </g>
  </g>
 </g>
 <defs>
  <clipPath id="p6439073c6e">
   <rect x="126" y="120.96" width="781.2" height="776.16"/>
  </clipPath>
 </defs>
</svg>
