<?xml version="1.0" encoding="utf-8" standalone="no"?>
<!DOCTYPE svg PUBLIC "-//W3C//DTD SVG 1.1//EN"
  "http://www.w3.org/Graphics/SVG/1.1/DTD/svg11.dtd">
<svg xmlns:xlink="http://www.w3.org/1999/xlink" width="410.036875pt" height="345.118625pt" viewBox="0 0 410.036875 345.118625" xmlns="http://www.w3.org/2000/svg" version="1.1">
 <metadata>
  <rdf:RDF xmlns:dc="http://purl.org/dc/elements/1.1/" xmlns:cc="http://creativecommons.org/ns#" xmlns:rdf="http://www.w3.org/1999/02/22-rdf-syntax-ns#">
   <cc:Work>
    <dc:type rdf:resource="http://purl.org/dc/dcmitype/StillImage"/>
    <dc:date>2024-06-28T14:34:45.838533</dc:date>
    <dc:format>image/svg+xml</dc:format>
    <dc:creator>
     <cc:Agent>
      <dc:title>Matplotlib v3.7.1, https://matplotlib.org/</dc:title>
     </cc:Agent>
    </dc:creator>
   </cc:Work>
  </rdf:RDF>
 </metadata>
 <defs>
  <style type="text/css">*{stroke-linejoin: round; stroke-linecap: butt}</style>
 </defs>
 <g id="figure_1">
  <g id="patch_1">
   <path d="M 0 345.118625 
L 410.036875 345.118625 
L 410.036875 0 
L 0 0 
z
" style="fill: #ffffff"/>
  </g>
  <g id="axes_1">
   <g id="patch_2">
    <path d="M 45.716875 305.62675 
L 402.836875 305.62675 
L 402.836875 39.51475 
L 45.716875 39.51475 
z
" style="fill: #ffffff"/>
   </g>
   <g id="matplotlib.axis_1">
    <g id="xtick_1">
     <g id="line2d_1">
      <defs>
       <path id="m31402f8b3d" d="M 0 0 
L 0 3.5 
" style="stroke: #000000; stroke-width: 0.8"/>
      </defs>
      <g>
       <use xlink:href="#m31402f8b3d" x="61.949602" y="305.62675" style="stroke: #000000; stroke-width: 0.8"/>
      </g>
     </g>
     <g id="text_1">
      <!-- 0.0 -->
      <g transform="translate(53.99804 320.225187) scale(0.1 -0.1)">
       <defs>
        <path id="DejaVuSans-30" d="M 2034 4250 
Q 1547 4250 1301 3770 
Q 1056 3291 1056 2328 
Q 1056 1369 1301 889 
Q 1547 409 2034 409 
Q 2525 409 2770 889 
Q 3016 1369 3016 2328 
Q 3016 3291 2770 3770 
Q 2525 4250 2034 4250 
z
M 2034 4750 
Q 2819 4750 3233 4129 
Q 3647 3509 3647 2328 
Q 3647 1150 3233 529 
Q 2819 -91 2034 -91 
Q 1250 -91 836 529 
Q 422 1150 422 2328 
Q 422 3509 836 4129 
Q 1250 4750 2034 4750 
z
" transform="scale(0.015625)"/>
        <path id="DejaVuSans-2e" d="M 684 794 
L 1344 794 
L 1344 0 
L 684 0 
L 684 794 
z
" transform="scale(0.015625)"/>
       </defs>
       <use xlink:href="#DejaVuSans-30"/>
       <use xlink:href="#DejaVuSans-2e" x="63.623047"/>
       <use xlink:href="#DejaVuSans-30" x="95.410156"/>
      </g>
     </g>
    </g>
    <g id="xtick_2">
     <g id="line2d_2">
      <g>
       <use xlink:href="#m31402f8b3d" x="138.496599" y="305.62675" style="stroke: #000000; stroke-width: 0.8"/>
      </g>
     </g>
     <g id="text_2">
      <!-- 0.2 -->
      <g transform="translate(130.545037 320.225187) scale(0.1 -0.1)">
       <defs>
        <path id="DejaVuSans-32" d="M 1228 531 
L 3431 531 
L 3431 0 
L 469 0 
L 469 531 
Q 828 903 1448 1529 
Q 2069 2156 2228 2338 
Q 2531 2678 2651 2914 
Q 2772 3150 2772 3378 
Q 2772 3750 2511 3984 
Q 2250 4219 1831 4219 
Q 1534 4219 1204 4116 
Q 875 4013 500 3803 
L 500 4441 
Q 881 4594 1212 4672 
Q 1544 4750 1819 4750 
Q 2544 4750 2975 4387 
Q 3406 4025 3406 3419 
Q 3406 3131 3298 2873 
Q 3191 2616 2906 2266 
Q 2828 2175 2409 1742 
Q 1991 1309 1228 531 
z
" transform="scale(0.015625)"/>
       </defs>
       <use xlink:href="#DejaVuSans-30"/>
       <use xlink:href="#DejaVuSans-2e" x="63.623047"/>
       <use xlink:href="#DejaVuSans-32" x="95.410156"/>
      </g>
     </g>
    </g>
    <g id="xtick_3">
     <g id="line2d_3">
      <g>
       <use xlink:href="#m31402f8b3d" x="215.043596" y="305.62675" style="stroke: #000000; stroke-width: 0.8"/>
      </g>
     </g>
     <g id="text_3">
      <!-- 0.4 -->
      <g transform="translate(207.092034 320.225187) scale(0.1 -0.1)">
       <defs>
        <path id="DejaVuSans-34" d="M 2419 4116 
L 825 1625 
L 2419 1625 
L 2419 4116 
z
M 2253 4666 
L 3047 4666 
L 3047 1625 
L 3713 1625 
L 3713 1100 
L 3047 1100 
L 3047 0 
L 2419 0 
L 2419 1100 
L 313 1100 
L 313 1709 
L 2253 4666 
z
" transform="scale(0.015625)"/>
       </defs>
       <use xlink:href="#DejaVuSans-30"/>
       <use xlink:href="#DejaVuSans-2e" x="63.623047"/>
       <use xlink:href="#DejaVuSans-34" x="95.410156"/>
      </g>
     </g>
    </g>
    <g id="xtick_4">
     <g id="line2d_4">
      <g>
       <use xlink:href="#m31402f8b3d" x="291.590593" y="305.62675" style="stroke: #000000; stroke-width: 0.8"/>
      </g>
     </g>
     <g id="text_4">
      <!-- 0.6 -->
      <g transform="translate(283.639031 320.225187) scale(0.1 -0.1)">
       <defs>
        <path id="DejaVuSans-36" d="M 2113 2584 
Q 1688 2584 1439 2293 
Q 1191 2003 1191 1497 
Q 1191 994 1439 701 
Q 1688 409 2113 409 
Q 2538 409 2786 701 
Q 3034 994 3034 1497 
Q 3034 2003 2786 2293 
Q 2538 2584 2113 2584 
z
M 3366 4563 
L 3366 3988 
Q 3128 4100 2886 4159 
Q 2644 4219 2406 4219 
Q 1781 4219 1451 3797 
Q 1122 3375 1075 2522 
Q 1259 2794 1537 2939 
Q 1816 3084 2150 3084 
Q 2853 3084 3261 2657 
Q 3669 2231 3669 1497 
Q 3669 778 3244 343 
Q 2819 -91 2113 -91 
Q 1303 -91 875 529 
Q 447 1150 447 2328 
Q 447 3434 972 4092 
Q 1497 4750 2381 4750 
Q 2619 4750 2861 4703 
Q 3103 4656 3366 4563 
z
" transform="scale(0.015625)"/>
       </defs>
       <use xlink:href="#DejaVuSans-30"/>
       <use xlink:href="#DejaVuSans-2e" x="63.623047"/>
       <use xlink:href="#DejaVuSans-36" x="95.410156"/>
      </g>
     </g>
    </g>
    <g id="xtick_5">
     <g id="line2d_5">
      <g>
       <use xlink:href="#m31402f8b3d" x="368.13759" y="305.62675" style="stroke: #000000; stroke-width: 0.8"/>
      </g>
     </g>
     <g id="text_5">
      <!-- 0.8 -->
      <g transform="translate(360.186028 320.225187) scale(0.1 -0.1)">
       <defs>
        <path id="DejaVuSans-38" d="M 2034 2216 
Q 1584 2216 1326 1975 
Q 1069 1734 1069 1313 
Q 1069 891 1326 650 
Q 1584 409 2034 409 
Q 2484 409 2743 651 
Q 3003 894 3003 1313 
Q 3003 1734 2745 1975 
Q 2488 2216 2034 2216 
z
M 1403 2484 
Q 997 2584 770 2862 
Q 544 3141 544 3541 
Q 544 4100 942 4425 
Q 1341 4750 2034 4750 
Q 2731 4750 3128 4425 
Q 3525 4100 3525 3541 
Q 3525 3141 3298 2862 
Q 3072 2584 2669 2484 
Q 3125 2378 3379 2068 
Q 3634 1759 3634 1313 
Q 3634 634 3220 271 
Q 2806 -91 2034 -91 
Q 1263 -91 848 271 
Q 434 634 434 1313 
Q 434 1759 690 2068 
Q 947 2378 1403 2484 
z
M 1172 3481 
Q 1172 3119 1398 2916 
Q 1625 2713 2034 2713 
Q 2441 2713 2670 2916 
Q 2900 3119 2900 3481 
Q 2900 3844 2670 4047 
Q 2441 4250 2034 4250 
Q 1625 4250 1398 4047 
Q 1172 3844 1172 3481 
z
" transform="scale(0.015625)"/>
       </defs>
       <use xlink:href="#DejaVuSans-30"/>
       <use xlink:href="#DejaVuSans-2e" x="63.623047"/>
       <use xlink:href="#DejaVuSans-38" x="95.410156"/>
      </g>
     </g>
    </g>
    <g id="text_6">
     <!-- Coefficient of Variation -->
     <g transform="translate(155.80375 335.423) scale(0.12 -0.12)">
      <defs>
       <path id="DejaVuSans-43" d="M 4122 4306 
L 4122 3641 
Q 3803 3938 3442 4084 
Q 3081 4231 2675 4231 
Q 1875 4231 1450 3742 
Q 1025 3253 1025 2328 
Q 1025 1406 1450 917 
Q 1875 428 2675 428 
Q 3081 428 3442 575 
Q 3803 722 4122 1019 
L 4122 359 
Q 3791 134 3420 21 
Q 3050 -91 2638 -91 
Q 1578 -91 968 557 
Q 359 1206 359 2328 
Q 359 3453 968 4101 
Q 1578 4750 2638 4750 
Q 3056 4750 3426 4639 
Q 3797 4528 4122 4306 
z
" transform="scale(0.015625)"/>
       <path id="DejaVuSans-6f" d="M 1959 3097 
Q 1497 3097 1228 2736 
Q 959 2375 959 1747 
Q 959 1119 1226 758 
Q 1494 397 1959 397 
Q 2419 397 2687 759 
Q 2956 1122 2956 1747 
Q 2956 2369 2687 2733 
Q 2419 3097 1959 3097 
z
M 1959 3584 
Q 2709 3584 3137 3096 
Q 3566 2609 3566 1747 
Q 3566 888 3137 398 
Q 2709 -91 1959 -91 
Q 1206 -91 779 398 
Q 353 888 353 1747 
Q 353 2609 779 3096 
Q 1206 3584 1959 3584 
z
" transform="scale(0.015625)"/>
       <path id="DejaVuSans-65" d="M 3597 1894 
L 3597 1613 
L 953 1613 
Q 991 1019 1311 708 
Q 1631 397 2203 397 
Q 2534 397 2845 478 
Q 3156 559 3463 722 
L 3463 178 
Q 3153 47 2828 -22 
Q 2503 -91 2169 -91 
Q 1331 -91 842 396 
Q 353 884 353 1716 
Q 353 2575 817 3079 
Q 1281 3584 2069 3584 
Q 2775 3584 3186 3129 
Q 3597 2675 3597 1894 
z
M 3022 2063 
Q 3016 2534 2758 2815 
Q 2500 3097 2075 3097 
Q 1594 3097 1305 2825 
Q 1016 2553 972 2059 
L 3022 2063 
z
" transform="scale(0.015625)"/>
       <path id="DejaVuSans-66" d="M 2375 4863 
L 2375 4384 
L 1825 4384 
Q 1516 4384 1395 4259 
Q 1275 4134 1275 3809 
L 1275 3500 
L 2222 3500 
L 2222 3053 
L 1275 3053 
L 1275 0 
L 697 0 
L 697 3053 
L 147 3053 
L 147 3500 
L 697 3500 
L 697 3744 
Q 697 4328 969 4595 
Q 1241 4863 1831 4863 
L 2375 4863 
z
" transform="scale(0.015625)"/>
       <path id="DejaVuSans-69" d="M 603 3500 
L 1178 3500 
L 1178 0 
L 603 0 
L 603 3500 
z
M 603 4863 
L 1178 4863 
L 1178 4134 
L 603 4134 
L 603 4863 
z
" transform="scale(0.015625)"/>
       <path id="DejaVuSans-63" d="M 3122 3366 
L 3122 2828 
Q 2878 2963 2633 3030 
Q 2388 3097 2138 3097 
Q 1578 3097 1268 2742 
Q 959 2388 959 1747 
Q 959 1106 1268 751 
Q 1578 397 2138 397 
Q 2388 397 2633 464 
Q 2878 531 3122 666 
L 3122 134 
Q 2881 22 2623 -34 
Q 2366 -91 2075 -91 
Q 1284 -91 818 406 
Q 353 903 353 1747 
Q 353 2603 823 3093 
Q 1294 3584 2113 3584 
Q 2378 3584 2631 3529 
Q 2884 3475 3122 3366 
z
" transform="scale(0.015625)"/>
       <path id="DejaVuSans-6e" d="M 3513 2113 
L 3513 0 
L 2938 0 
L 2938 2094 
Q 2938 2591 2744 2837 
Q 2550 3084 2163 3084 
Q 1697 3084 1428 2787 
Q 1159 2491 1159 1978 
L 1159 0 
L 581 0 
L 581 3500 
L 1159 3500 
L 1159 2956 
Q 1366 3272 1645 3428 
Q 1925 3584 2291 3584 
Q 2894 3584 3203 3211 
Q 3513 2838 3513 2113 
z
" transform="scale(0.015625)"/>
       <path id="DejaVuSans-74" d="M 1172 4494 
L 1172 3500 
L 2356 3500 
L 2356 3053 
L 1172 3053 
L 1172 1153 
Q 1172 725 1289 603 
Q 1406 481 1766 481 
L 2356 481 
L 2356 0 
L 1766 0 
Q 1100 0 847 248 
Q 594 497 594 1153 
L 594 3053 
L 172 3053 
L 172 3500 
L 594 3500 
L 594 4494 
L 1172 4494 
z
" transform="scale(0.015625)"/>
       <path id="DejaVuSans-20" transform="scale(0.015625)"/>
       <path id="DejaVuSans-56" d="M 1831 0 
L 50 4666 
L 709 4666 
L 2188 738 
L 3669 4666 
L 4325 4666 
L 2547 0 
L 1831 0 
z
" transform="scale(0.015625)"/>
       <path id="DejaVuSans-61" d="M 2194 1759 
Q 1497 1759 1228 1600 
Q 959 1441 959 1056 
Q 959 750 1161 570 
Q 1363 391 1709 391 
Q 2188 391 2477 730 
Q 2766 1069 2766 1631 
L 2766 1759 
L 2194 1759 
z
M 3341 1997 
L 3341 0 
L 2766 0 
L 2766 531 
Q 2569 213 2275 61 
Q 1981 -91 1556 -91 
Q 1019 -91 701 211 
Q 384 513 384 1019 
Q 384 1609 779 1909 
Q 1175 2209 1959 2209 
L 2766 2209 
L 2766 2266 
Q 2766 2663 2505 2880 
Q 2244 3097 1772 3097 
Q 1472 3097 1187 3025 
Q 903 2953 641 2809 
L 641 3341 
Q 956 3463 1253 3523 
Q 1550 3584 1831 3584 
Q 2591 3584 2966 3190 
Q 3341 2797 3341 1997 
z
" transform="scale(0.015625)"/>
       <path id="DejaVuSans-72" d="M 2631 2963 
Q 2534 3019 2420 3045 
Q 2306 3072 2169 3072 
Q 1681 3072 1420 2755 
Q 1159 2438 1159 1844 
L 1159 0 
L 581 0 
L 581 3500 
L 1159 3500 
L 1159 2956 
Q 1341 3275 1631 3429 
Q 1922 3584 2338 3584 
Q 2397 3584 2469 3576 
Q 2541 3569 2628 3553 
L 2631 2963 
z
" transform="scale(0.015625)"/>
      </defs>
      <use xlink:href="#DejaVuSans-43"/>
      <use xlink:href="#DejaVuSans-6f" x="69.824219"/>
      <use xlink:href="#DejaVuSans-65" x="131.005859"/>
      <use xlink:href="#DejaVuSans-66" x="192.529297"/>
      <use xlink:href="#DejaVuSans-66" x="227.734375"/>
      <use xlink:href="#DejaVuSans-69" x="262.939453"/>
      <use xlink:href="#DejaVuSans-63" x="290.722656"/>
      <use xlink:href="#DejaVuSans-69" x="345.703125"/>
      <use xlink:href="#DejaVuSans-65" x="373.486328"/>
      <use xlink:href="#DejaVuSans-6e" x="435.009766"/>
      <use xlink:href="#DejaVuSans-74" x="498.388672"/>
      <use xlink:href="#DejaVuSans-20" x="537.597656"/>
      <use xlink:href="#DejaVuSans-6f" x="569.384766"/>
      <use xlink:href="#DejaVuSans-66" x="630.566406"/>
      <use xlink:href="#DejaVuSans-20" x="665.771484"/>
      <use xlink:href="#DejaVuSans-56" x="697.558594"/>
      <use xlink:href="#DejaVuSans-61" x="758.216797"/>
      <use xlink:href="#DejaVuSans-72" x="819.496094"/>
      <use xlink:href="#DejaVuSans-69" x="860.609375"/>
      <use xlink:href="#DejaVuSans-61" x="888.392578"/>
      <use xlink:href="#DejaVuSans-74" x="949.671875"/>
      <use xlink:href="#DejaVuSans-69" x="988.880859"/>
      <use xlink:href="#DejaVuSans-6f" x="1016.664062"/>
      <use xlink:href="#DejaVuSans-6e" x="1077.845703"/>
     </g>
    </g>
   </g>
   <g id="matplotlib.axis_2">
    <g id="ytick_1">
     <g id="line2d_6">
      <defs>
       <path id="m9867a9c4e3" d="M 0 0 
L -3.5 0 
" style="stroke: #000000; stroke-width: 0.8"/>
      </defs>
      <g>
       <use xlink:href="#m9867a9c4e3" x="45.716875" y="305.62675" style="stroke: #000000; stroke-width: 0.8"/>
      </g>
     </g>
     <g id="text_7">
      <!-- 0.0 -->
      <g transform="translate(22.81375 309.425969) scale(0.1 -0.1)">
       <use xlink:href="#DejaVuSans-30"/>
       <use xlink:href="#DejaVuSans-2e" x="63.623047"/>
       <use xlink:href="#DejaVuSans-30" x="95.410156"/>
      </g>
     </g>
    </g>
    <g id="ytick_2">
     <g id="line2d_7">
      <g>
       <use xlink:href="#m9867a9c4e3" x="45.716875" y="267.576521" style="stroke: #000000; stroke-width: 0.8"/>
      </g>
     </g>
     <g id="text_8">
      <!-- 0.2 -->
      <g transform="translate(22.81375 271.37574) scale(0.1 -0.1)">
       <use xlink:href="#DejaVuSans-30"/>
       <use xlink:href="#DejaVuSans-2e" x="63.623047"/>
       <use xlink:href="#DejaVuSans-32" x="95.410156"/>
      </g>
     </g>
    </g>
    <g id="ytick_3">
     <g id="line2d_8">
      <g>
       <use xlink:href="#m9867a9c4e3" x="45.716875" y="229.526293" style="stroke: #000000; stroke-width: 0.8"/>
      </g>
     </g>
     <g id="text_9">
      <!-- 0.4 -->
      <g transform="translate(22.81375 233.325511) scale(0.1 -0.1)">
       <use xlink:href="#DejaVuSans-30"/>
       <use xlink:href="#DejaVuSans-2e" x="63.623047"/>
       <use xlink:href="#DejaVuSans-34" x="95.410156"/>
      </g>
     </g>
    </g>
    <g id="ytick_4">
     <g id="line2d_9">
      <g>
       <use xlink:href="#m9867a9c4e3" x="45.716875" y="191.476064" style="stroke: #000000; stroke-width: 0.8"/>
      </g>
     </g>
     <g id="text_10">
      <!-- 0.6 -->
      <g transform="translate(22.81375 195.275283) scale(0.1 -0.1)">
       <use xlink:href="#DejaVuSans-30"/>
       <use xlink:href="#DejaVuSans-2e" x="63.623047"/>
       <use xlink:href="#DejaVuSans-36" x="95.410156"/>
      </g>
     </g>
    </g>
    <g id="ytick_5">
     <g id="line2d_10">
      <g>
       <use xlink:href="#m9867a9c4e3" x="45.716875" y="153.425835" style="stroke: #000000; stroke-width: 0.8"/>
      </g>
     </g>
     <g id="text_11">
      <!-- 0.8 -->
      <g transform="translate(22.81375 157.225054) scale(0.1 -0.1)">
       <use xlink:href="#DejaVuSans-30"/>
       <use xlink:href="#DejaVuSans-2e" x="63.623047"/>
       <use xlink:href="#DejaVuSans-38" x="95.410156"/>
      </g>
     </g>
    </g>
    <g id="ytick_6">
     <g id="line2d_11">
      <g>
       <use xlink:href="#m9867a9c4e3" x="45.716875" y="115.375606" style="stroke: #000000; stroke-width: 0.8"/>
      </g>
     </g>
     <g id="text_12">
      <!-- 1.0 -->
      <g transform="translate(22.81375 119.174825) scale(0.1 -0.1)">
       <defs>
        <path id="DejaVuSans-31" d="M 794 531 
L 1825 531 
L 1825 4091 
L 703 3866 
L 703 4441 
L 1819 4666 
L 2450 4666 
L 2450 531 
L 3481 531 
L 3481 0 
L 794 0 
L 794 531 
z
" transform="scale(0.015625)"/>
       </defs>
       <use xlink:href="#DejaVuSans-31"/>
       <use xlink:href="#DejaVuSans-2e" x="63.623047"/>
       <use xlink:href="#DejaVuSans-30" x="95.410156"/>
      </g>
     </g>
    </g>
    <g id="ytick_7">
     <g id="line2d_12">
      <g>
       <use xlink:href="#m9867a9c4e3" x="45.716875" y="77.325378" style="stroke: #000000; stroke-width: 0.8"/>
      </g>
     </g>
     <g id="text_13">
      <!-- 1.2 -->
      <g transform="translate(22.81375 81.124596) scale(0.1 -0.1)">
       <use xlink:href="#DejaVuSans-31"/>
       <use xlink:href="#DejaVuSans-2e" x="63.623047"/>
       <use xlink:href="#DejaVuSans-32" x="95.410156"/>
      </g>
     </g>
    </g>
    <g id="text_14">
     <!-- Density -->
     <g transform="translate(16.318125 195.381062) rotate(-90) scale(0.12 -0.12)">
      <defs>
       <path id="DejaVuSans-44" d="M 1259 4147 
L 1259 519 
L 2022 519 
Q 2988 519 3436 956 
Q 3884 1394 3884 2338 
Q 3884 3275 3436 3711 
Q 2988 4147 2022 4147 
L 1259 4147 
z
M 628 4666 
L 1925 4666 
Q 3281 4666 3915 4102 
Q 4550 3538 4550 2338 
Q 4550 1131 3912 565 
Q 3275 0 1925 0 
L 628 0 
L 628 4666 
z
" transform="scale(0.015625)"/>
       <path id="DejaVuSans-73" d="M 2834 3397 
L 2834 2853 
Q 2591 2978 2328 3040 
Q 2066 3103 1784 3103 
Q 1356 3103 1142 2972 
Q 928 2841 928 2578 
Q 928 2378 1081 2264 
Q 1234 2150 1697 2047 
L 1894 2003 
Q 2506 1872 2764 1633 
Q 3022 1394 3022 966 
Q 3022 478 2636 193 
Q 2250 -91 1575 -91 
Q 1294 -91 989 -36 
Q 684 19 347 128 
L 347 722 
Q 666 556 975 473 
Q 1284 391 1588 391 
Q 1994 391 2212 530 
Q 2431 669 2431 922 
Q 2431 1156 2273 1281 
Q 2116 1406 1581 1522 
L 1381 1569 
Q 847 1681 609 1914 
Q 372 2147 372 2553 
Q 372 3047 722 3315 
Q 1072 3584 1716 3584 
Q 2034 3584 2315 3537 
Q 2597 3491 2834 3397 
z
" transform="scale(0.015625)"/>
       <path id="DejaVuSans-79" d="M 2059 -325 
Q 1816 -950 1584 -1140 
Q 1353 -1331 966 -1331 
L 506 -1331 
L 506 -850 
L 844 -850 
Q 1081 -850 1212 -737 
Q 1344 -625 1503 -206 
L 1606 56 
L 191 3500 
L 800 3500 
L 1894 763 
L 2988 3500 
L 3597 3500 
L 2059 -325 
z
" transform="scale(0.015625)"/>
      </defs>
      <use xlink:href="#DejaVuSans-44"/>
      <use xlink:href="#DejaVuSans-65" x="77.001953"/>
      <use xlink:href="#DejaVuSans-6e" x="138.525391"/>
      <use xlink:href="#DejaVuSans-73" x="201.904297"/>
      <use xlink:href="#DejaVuSans-69" x="254.003906"/>
      <use xlink:href="#DejaVuSans-74" x="281.787109"/>
      <use xlink:href="#DejaVuSans-79" x="320.996094"/>
     </g>
    </g>
   </g>
   <g id="line2d_13">
    <path d="M 61.949602 224.063241 
L 65.212462 223.320925 
L 68.475322 222.787972 
L 71.738182 222.468303 
L 75.001041 222.364188 
L 78.263901 222.47621 
L 81.526761 222.803272 
L 84.789621 223.342602 
L 88.05248 224.0898 
L 91.31534 225.038897 
L 94.5782 226.18243 
L 97.84106 227.511543 
L 101.103919 229.016101 
L 105.998209 231.576925 
L 110.892499 234.464666 
L 115.786788 237.633164 
L 120.681078 241.033519 
L 127.206797 245.840807 
L 136.995377 253.395498 
L 151.678245 264.758477 
L 159.835395 270.740628 
L 166.361114 275.23158 
L 172.886834 279.403889 
L 177.781124 282.30205 
L 182.675413 284.991159 
L 187.569703 287.466019 
L 192.463992 289.72531 
L 197.358282 291.771102 
L 202.252572 293.608333 
L 207.146861 295.244282 
L 212.041151 296.688047 
L 216.935441 297.950055 
L 223.46116 299.369595 
L 229.98688 300.514028 
L 236.512599 301.411277 
L 243.038319 302.088187 
L 249.564038 302.569765 
L 257.721187 302.931416 
L 265.878337 303.062157 
L 275.666916 302.960902 
L 285.455495 302.624143 
L 296.875505 301.991139 
L 309.926944 301.031396 
L 331.135532 299.1967 
L 349.081261 297.706335 
L 360.50127 296.94569 
L 371.921279 296.418478 
L 381.709858 296.192311 
L 386.604148 296.163873 
L 386.604148 296.163873 
" clip-path="url(#p3d6fc2917c)" style="fill: none; stroke: #6cba7d; stroke-width: 1.5; stroke-linecap: square"/>
   </g>
   <g id="line2d_14">
    <path d="M 61.949602 171.396292 
L 65.086654 159.264156 
L 67.700863 149.956705 
L 69.792231 143.203363 
L 71.883598 137.189615 
L 73.452124 133.229256 
L 75.02065 129.786573 
L 76.589175 126.898979 
L 78.157701 124.599248 
L 79.203385 123.406495 
L 80.249069 122.494069 
L 81.294753 121.867458 
L 82.340436 121.530855 
L 83.38612 121.487101 
L 84.431804 121.737646 
L 85.477488 122.282506 
L 86.523172 123.120236 
L 87.568855 124.247919 
L 88.614539 125.661156 
L 89.660223 127.354078 
L 91.228749 130.401458 
L 92.797274 134.030644 
L 94.3658 138.204127 
L 96.457168 144.538795 
L 98.548535 151.642902 
L 101.162745 161.398878 
L 104.299796 174.009166 
L 114.233792 214.729002 
L 116.848002 224.305767 
L 119.462211 232.970381 
L 121.553579 239.140604 
L 123.644947 244.572487 
L 125.213472 248.140383 
L 126.781998 251.266411 
L 128.350524 253.95026 
L 129.919049 256.197831 
L 131.487575 258.020905 
L 133.056101 259.436742 
L 134.624626 260.467612 
L 136.193152 261.140279 
L 137.761678 261.485431 
L 139.330204 261.537082 
L 140.898729 261.331946 
L 142.467255 260.90879 
L 144.558623 260.07497 
L 147.172832 258.73583 
L 154.492619 254.722768 
L 156.583986 253.866392 
L 158.675354 253.264646 
L 160.24388 253.01081 
L 161.812405 252.944532 
L 163.380931 253.07763 
L 164.949457 253.4176 
L 165.99514 253.760941 
L 165.99514 253.760941 
" clip-path="url(#p3d6fc2917c)" style="fill: none; stroke: #045275; stroke-width: 1.5; stroke-linecap: square"/>
   </g>
   <g id="line2d_15">
    <path d="M 61.949602 141.606218 
L 65.658818 112.917525 
L 67.977077 96.3738 
L 69.831685 84.420464 
L 71.686293 73.949363 
L 73.077249 67.247138 
L 74.468204 61.657061 
L 75.395508 58.59719 
L 76.322812 56.100346 
L 77.250116 54.187739 
L 78.17742 52.87658 
L 78.641072 52.450766 
L 79.104724 52.179831 
L 79.568376 52.064696 
L 80.032028 52.105997 
L 80.49568 52.304073 
L 80.959332 52.658972 
L 81.886635 53.837947 
L 82.813939 55.637366 
L 83.741243 58.046955 
L 84.668547 61.051809 
L 86.059503 66.631599 
L 87.450459 73.422816 
L 88.841414 81.322614 
L 90.696022 93.37098 
L 92.55063 106.854642 
L 95.332542 129.000809 
L 104.60558 205.199182 
L 106.92384 221.831311 
L 109.2421 236.70722 
L 111.096707 247.212802 
L 112.951315 256.425316 
L 114.805923 264.337785 
L 116.196879 269.433526 
L 117.587834 273.83297 
L 118.97879 277.563816 
L 120.369746 280.659065 
L 121.760702 283.155707 
L 123.151658 285.093568 
L 124.542613 286.51436 
L 125.469917 287.195419 
L 126.397221 287.678538 
L 127.324525 287.97661 
L 128.251829 288.102533 
L 129.179133 288.069176 
L 130.570088 287.748522 
L 131.961044 287.141324 
L 133.352 286.290212 
L 135.206608 284.848893 
L 137.524867 282.693355 
L 146.334254 274.030132 
L 148.188862 272.674876 
L 150.04347 271.635484 
L 151.434426 271.091028 
L 152.825381 270.763779 
L 154.216337 270.662564 
L 154.216337 270.662564 
" clip-path="url(#p3d6fc2917c)" style="fill: none; stroke: #7c1d6f; stroke-width: 1.5; stroke-linecap: square"/>
   </g>
   <g id="line2d_16">
    <path d="M 61.949602 243.702764 
L 78.722145 219.222177 
L 82.91528 213.638508 
L 86.060132 209.759131 
L 89.204984 206.207943 
L 92.349836 203.040257 
L 94.446404 201.16726 
L 96.542971 199.501934 
L 98.639539 198.057212 
L 100.736107 196.84465 
L 102.832675 195.874249 
L 104.929243 195.154307 
L 107.02581 194.691275 
L 109.122378 194.489644 
L 111.218946 194.551857 
L 113.315514 194.878239 
L 115.412082 195.466963 
L 117.50865 196.314042 
L 119.605217 197.413351 
L 121.701785 198.756682 
L 123.798353 200.333822 
L 125.894921 202.132667 
L 129.039773 205.215871 
L 132.184624 208.713041 
L 135.329476 212.564242 
L 139.522612 218.137134 
L 144.764031 225.578039 
L 158.391722 245.243942 
L 162.584858 250.835481 
L 166.777993 256.017661 
L 169.922845 259.59113 
L 173.067697 262.872127 
L 176.212549 265.847742 
L 179.3574 268.512681 
L 182.502252 270.868649 
L 185.647104 272.923573 
L 188.791956 274.69071 
L 191.936807 276.187682 
L 195.081659 277.435493 
L 198.226511 278.457556 
L 201.371362 279.278772 
L 205.564498 280.105456 
L 209.757634 280.680512 
L 214.999053 281.13233 
L 221.288757 281.415283 
L 234.916448 281.691433 
L 243.302719 281.981253 
L 250.640706 282.459504 
L 256.93041 283.087484 
L 263.220113 283.942004 
L 269.509817 285.031822 
L 270.558101 285.236091 
L 270.558101 285.236091 
" clip-path="url(#p3d6fc2917c)" style="fill: none; stroke: #dc3977; stroke-width: 1.5; stroke-linecap: square"/>
   </g>
   <g id="line2d_17">
    <path d="M 61.949602 279.70483 
L 70.333031 276.649295 
L 73.686402 275.170354 
L 76.201431 273.859129 
L 78.716459 272.315935 
L 81.231488 270.487812 
L 83.746517 268.324118 
L 86.261545 265.778829 
L 88.776574 262.812821 
L 91.291602 259.396041 
L 93.806631 255.50946 
L 96.321659 251.14673 
L 98.836688 246.315444 
L 101.351717 241.037953 
L 104.705088 233.374004 
L 108.05846 225.114372 
L 113.088517 211.995418 
L 120.633602 192.170518 
L 123.986974 183.948227 
L 126.502002 178.242668 
L 129.017031 173.045217 
L 131.53206 168.448705 
L 133.208745 165.759268 
L 134.885431 163.394885 
L 136.562117 161.373983 
L 138.238802 159.71199 
L 139.915488 158.421187 
L 141.592174 157.510583 
L 143.26886 156.985851 
L 144.945545 156.849293 
L 146.622231 157.099864 
L 148.298917 157.733218 
L 149.975602 158.741814 
L 151.652288 160.115041 
L 153.328974 161.839386 
L 155.00566 163.898635 
L 156.682345 166.274088 
L 158.359031 168.94481 
L 160.87406 173.453949 
L 163.389088 178.491375 
L 166.74246 185.872731 
L 170.934174 195.850721 
L 184.34766 228.590271 
L 187.701031 235.981984 
L 191.054403 242.776991 
L 193.569431 247.432473 
L 196.08446 251.687089 
L 198.599488 255.532674 
L 201.114517 258.97215 
L 203.629545 262.0187 
L 206.144574 264.69465 
L 208.659603 267.030112 
L 211.174631 269.061414 
L 213.68966 270.829399 
L 217.043031 272.852589 
L 220.396403 274.590318 
L 225.42646 276.879798 
L 228.779831 278.321379 
L 228.779831 278.321379 
" clip-path="url(#p3d6fc2917c)" style="fill: none; stroke: #fc4e2a; stroke-width: 1.5; stroke-linecap: square"/>
   </g>
   <g id="patch_3">
    <path d="M 45.716875 305.62675 
L 45.716875 39.51475 
" style="fill: none; stroke: #000000; stroke-width: 0.8; stroke-linejoin: miter; stroke-linecap: square"/>
   </g>
   <g id="patch_4">
    <path d="M 402.836875 305.62675 
L 402.836875 39.51475 
" style="fill: none; stroke: #000000; stroke-width: 0.8; stroke-linejoin: miter; stroke-linecap: square"/>
   </g>
   <g id="patch_5">
    <path d="M 45.716875 305.62675 
L 402.836875 305.62675 
" style="fill: none; stroke: #000000; stroke-width: 0.8; stroke-linejoin: miter; stroke-linecap: square"/>
   </g>
   <g id="patch_6">
    <path d="M 45.716875 39.51475 
L 402.836875 39.51475 
" style="fill: none; stroke: #000000; stroke-width: 0.8; stroke-linejoin: miter; stroke-linecap: square"/>
   </g>
   <g id="text_15">
    <!-- Coefficient of Variation Across Populations  -->
    <g transform="translate(74.486719 17.837812) scale(0.14 -0.14)">
     <defs>
      <path id="DejaVuSans-41" d="M 2188 4044 
L 1331 1722 
L 3047 1722 
L 2188 4044 
z
M 1831 4666 
L 2547 4666 
L 4325 0 
L 3669 0 
L 3244 1197 
L 1141 1197 
L 716 0 
L 50 0 
L 1831 4666 
z
" transform="scale(0.015625)"/>
      <path id="DejaVuSans-50" d="M 1259 4147 
L 1259 2394 
L 2053 2394 
Q 2494 2394 2734 2622 
Q 2975 2850 2975 3272 
Q 2975 3691 2734 3919 
Q 2494 4147 2053 4147 
L 1259 4147 
z
M 628 4666 
L 2053 4666 
Q 2838 4666 3239 4311 
Q 3641 3956 3641 3272 
Q 3641 2581 3239 2228 
Q 2838 1875 2053 1875 
L 1259 1875 
L 1259 0 
L 628 0 
L 628 4666 
z
" transform="scale(0.015625)"/>
      <path id="DejaVuSans-70" d="M 1159 525 
L 1159 -1331 
L 581 -1331 
L 581 3500 
L 1159 3500 
L 1159 2969 
Q 1341 3281 1617 3432 
Q 1894 3584 2278 3584 
Q 2916 3584 3314 3078 
Q 3713 2572 3713 1747 
Q 3713 922 3314 415 
Q 2916 -91 2278 -91 
Q 1894 -91 1617 61 
Q 1341 213 1159 525 
z
M 3116 1747 
Q 3116 2381 2855 2742 
Q 2594 3103 2138 3103 
Q 1681 3103 1420 2742 
Q 1159 2381 1159 1747 
Q 1159 1113 1420 752 
Q 1681 391 2138 391 
Q 2594 391 2855 752 
Q 3116 1113 3116 1747 
z
" transform="scale(0.015625)"/>
      <path id="DejaVuSans-75" d="M 544 1381 
L 544 3500 
L 1119 3500 
L 1119 1403 
Q 1119 906 1312 657 
Q 1506 409 1894 409 
Q 2359 409 2629 706 
Q 2900 1003 2900 1516 
L 2900 3500 
L 3475 3500 
L 3475 0 
L 2900 0 
L 2900 538 
Q 2691 219 2414 64 
Q 2138 -91 1772 -91 
Q 1169 -91 856 284 
Q 544 659 544 1381 
z
M 1991 3584 
L 1991 3584 
z
" transform="scale(0.015625)"/>
      <path id="DejaVuSans-6c" d="M 603 4863 
L 1178 4863 
L 1178 0 
L 603 0 
L 603 4863 
z
" transform="scale(0.015625)"/>
     </defs>
     <use xlink:href="#DejaVuSans-43"/>
     <use xlink:href="#DejaVuSans-6f" x="69.824219"/>
     <use xlink:href="#DejaVuSans-65" x="131.005859"/>
     <use xlink:href="#DejaVuSans-66" x="192.529297"/>
     <use xlink:href="#DejaVuSans-66" x="227.734375"/>
     <use xlink:href="#DejaVuSans-69" x="262.939453"/>
     <use xlink:href="#DejaVuSans-63" x="290.722656"/>
     <use xlink:href="#DejaVuSans-69" x="345.703125"/>
     <use xlink:href="#DejaVuSans-65" x="373.486328"/>
     <use xlink:href="#DejaVuSans-6e" x="435.009766"/>
     <use xlink:href="#DejaVuSans-74" x="498.388672"/>
     <use xlink:href="#DejaVuSans-20" x="537.597656"/>
     <use xlink:href="#DejaVuSans-6f" x="569.384766"/>
     <use xlink:href="#DejaVuSans-66" x="630.566406"/>
     <use xlink:href="#DejaVuSans-20" x="665.771484"/>
     <use xlink:href="#DejaVuSans-56" x="697.558594"/>
     <use xlink:href="#DejaVuSans-61" x="758.216797"/>
     <use xlink:href="#DejaVuSans-72" x="819.496094"/>
     <use xlink:href="#DejaVuSans-69" x="860.609375"/>
     <use xlink:href="#DejaVuSans-61" x="888.392578"/>
     <use xlink:href="#DejaVuSans-74" x="949.671875"/>
     <use xlink:href="#DejaVuSans-69" x="988.880859"/>
     <use xlink:href="#DejaVuSans-6f" x="1016.664062"/>
     <use xlink:href="#DejaVuSans-6e" x="1077.845703"/>
     <use xlink:href="#DejaVuSans-20" x="1141.224609"/>
     <use xlink:href="#DejaVuSans-41" x="1173.011719"/>
     <use xlink:href="#DejaVuSans-63" x="1239.669922"/>
     <use xlink:href="#DejaVuSans-72" x="1294.650391"/>
     <use xlink:href="#DejaVuSans-6f" x="1333.513672"/>
     <use xlink:href="#DejaVuSans-73" x="1394.695312"/>
     <use xlink:href="#DejaVuSans-73" x="1446.794922"/>
     <use xlink:href="#DejaVuSans-20" x="1498.894531"/>
     <use xlink:href="#DejaVuSans-50" x="1530.681641"/>
     <use xlink:href="#DejaVuSans-6f" x="1587.359375"/>
     <use xlink:href="#DejaVuSans-70" x="1648.541016"/>
     <use xlink:href="#DejaVuSans-75" x="1712.017578"/>
     <use xlink:href="#DejaVuSans-6c" x="1775.396484"/>
     <use xlink:href="#DejaVuSans-61" x="1803.179688"/>
     <use xlink:href="#DejaVuSans-74" x="1864.458984"/>
     <use xlink:href="#DejaVuSans-69" x="1903.667969"/>
     <use xlink:href="#DejaVuSans-6f" x="1931.451172"/>
     <use xlink:href="#DejaVuSans-6e" x="1992.632812"/>
     <use xlink:href="#DejaVuSans-73" x="2056.011719"/>
     <use xlink:href="#DejaVuSans-20" x="2108.111328"/>
    </g>
    <!--  for O vs non-O tSNPs -->
    <g transform="translate(148.674688 33.51475) scale(0.14 -0.14)">
     <defs>
      <path id="DejaVuSans-4f" d="M 2522 4238 
Q 1834 4238 1429 3725 
Q 1025 3213 1025 2328 
Q 1025 1447 1429 934 
Q 1834 422 2522 422 
Q 3209 422 3611 934 
Q 4013 1447 4013 2328 
Q 4013 3213 3611 3725 
Q 3209 4238 2522 4238 
z
M 2522 4750 
Q 3503 4750 4090 4092 
Q 4678 3434 4678 2328 
Q 4678 1225 4090 567 
Q 3503 -91 2522 -91 
Q 1538 -91 948 565 
Q 359 1222 359 2328 
Q 359 3434 948 4092 
Q 1538 4750 2522 4750 
z
" transform="scale(0.015625)"/>
      <path id="DejaVuSans-76" d="M 191 3500 
L 800 3500 
L 1894 563 
L 2988 3500 
L 3597 3500 
L 2284 0 
L 1503 0 
L 191 3500 
z
" transform="scale(0.015625)"/>
      <path id="DejaVuSans-2d" d="M 313 2009 
L 1997 2009 
L 1997 1497 
L 313 1497 
L 313 2009 
z
" transform="scale(0.015625)"/>
      <path id="DejaVuSans-53" d="M 3425 4513 
L 3425 3897 
Q 3066 4069 2747 4153 
Q 2428 4238 2131 4238 
Q 1616 4238 1336 4038 
Q 1056 3838 1056 3469 
Q 1056 3159 1242 3001 
Q 1428 2844 1947 2747 
L 2328 2669 
Q 3034 2534 3370 2195 
Q 3706 1856 3706 1288 
Q 3706 609 3251 259 
Q 2797 -91 1919 -91 
Q 1588 -91 1214 -16 
Q 841 59 441 206 
L 441 856 
Q 825 641 1194 531 
Q 1563 422 1919 422 
Q 2459 422 2753 634 
Q 3047 847 3047 1241 
Q 3047 1584 2836 1778 
Q 2625 1972 2144 2069 
L 1759 2144 
Q 1053 2284 737 2584 
Q 422 2884 422 3419 
Q 422 4038 858 4394 
Q 1294 4750 2059 4750 
Q 2388 4750 2728 4690 
Q 3069 4631 3425 4513 
z
" transform="scale(0.015625)"/>
      <path id="DejaVuSans-4e" d="M 628 4666 
L 1478 4666 
L 3547 763 
L 3547 4666 
L 4159 4666 
L 4159 0 
L 3309 0 
L 1241 3903 
L 1241 0 
L 628 0 
L 628 4666 
z
" transform="scale(0.015625)"/>
     </defs>
     <use xlink:href="#DejaVuSans-20"/>
     <use xlink:href="#DejaVuSans-66" x="31.787109"/>
     <use xlink:href="#DejaVuSans-6f" x="66.992188"/>
     <use xlink:href="#DejaVuSans-72" x="128.173828"/>
     <use xlink:href="#DejaVuSans-20" x="169.287109"/>
     <use xlink:href="#DejaVuSans-4f" x="201.074219"/>
     <use xlink:href="#DejaVuSans-20" x="279.785156"/>
     <use xlink:href="#DejaVuSans-76" x="311.572266"/>
     <use xlink:href="#DejaVuSans-73" x="370.751953"/>
     <use xlink:href="#DejaVuSans-20" x="422.851562"/>
     <use xlink:href="#DejaVuSans-6e" x="454.638672"/>
     <use xlink:href="#DejaVuSans-6f" x="518.017578"/>
     <use xlink:href="#DejaVuSans-6e" x="579.199219"/>
     <use xlink:href="#DejaVuSans-2d" x="642.578125"/>
     <use xlink:href="#DejaVuSans-4f" x="681.412109"/>
     <use xlink:href="#DejaVuSans-20" x="760.123047"/>
     <use xlink:href="#DejaVuSans-74" x="791.910156"/>
     <use xlink:href="#DejaVuSans-53" x="831.119141"/>
     <use xlink:href="#DejaVuSans-4e" x="894.595703"/>
     <use xlink:href="#DejaVuSans-50" x="969.400391"/>
     <use xlink:href="#DejaVuSans-73" x="1027.953125"/>
    </g>
   </g>
   <g id="legend_1">
    <g id="patch_7">
     <path d="M 341.419688 135.5835 
L 395.836875 135.5835 
Q 397.836875 135.5835 397.836875 133.5835 
L 397.836875 46.51475 
Q 397.836875 44.51475 395.836875 44.51475 
L 341.419688 44.51475 
Q 339.419688 44.51475 339.419688 46.51475 
L 339.419688 133.5835 
Q 339.419688 135.5835 341.419688 135.5835 
z
" style="fill: #ffffff; opacity: 0.8; stroke: #cccccc; stroke-linejoin: miter"/>
    </g>
    <g id="text_16">
     <!-- pop -->
     <g transform="translate(359.220469 56.113187) scale(0.1 -0.1)">
      <use xlink:href="#DejaVuSans-70"/>
      <use xlink:href="#DejaVuSans-6f" x="63.476562"/>
      <use xlink:href="#DejaVuSans-70" x="124.658203"/>
     </g>
    </g>
    <g id="line2d_18">
     <path d="M 343.419688 67.291312 
L 353.419688 67.291312 
L 363.419688 67.291312 
" style="fill: none; stroke: #fc4e2a; stroke-width: 1.5; stroke-linecap: square"/>
    </g>
    <g id="text_17">
     <!-- AFR -->
     <g transform="translate(371.419688 70.791312) scale(0.1 -0.1)">
      <defs>
       <path id="DejaVuSans-46" d="M 628 4666 
L 3309 4666 
L 3309 4134 
L 1259 4134 
L 1259 2759 
L 3109 2759 
L 3109 2228 
L 1259 2228 
L 1259 0 
L 628 0 
L 628 4666 
z
" transform="scale(0.015625)"/>
       <path id="DejaVuSans-52" d="M 2841 2188 
Q 3044 2119 3236 1894 
Q 3428 1669 3622 1275 
L 4263 0 
L 3584 0 
L 2988 1197 
Q 2756 1666 2539 1819 
Q 2322 1972 1947 1972 
L 1259 1972 
L 1259 0 
L 628 0 
L 628 4666 
L 2053 4666 
Q 2853 4666 3247 4331 
Q 3641 3997 3641 3322 
Q 3641 2881 3436 2590 
Q 3231 2300 2841 2188 
z
M 1259 4147 
L 1259 2491 
L 2053 2491 
Q 2509 2491 2742 2702 
Q 2975 2913 2975 3322 
Q 2975 3731 2742 3939 
Q 2509 4147 2053 4147 
L 1259 4147 
z
" transform="scale(0.015625)"/>
      </defs>
      <use xlink:href="#DejaVuSans-41"/>
      <use xlink:href="#DejaVuSans-46" x="68.408203"/>
      <use xlink:href="#DejaVuSans-52" x="125.927734"/>
     </g>
    </g>
    <g id="line2d_19">
     <path d="M 343.419688 81.969437 
L 353.419688 81.969437 
L 363.419688 81.969437 
" style="fill: none; stroke: #dc3977; stroke-width: 1.5; stroke-linecap: square"/>
    </g>
    <g id="text_18">
     <!-- AMR -->
     <g transform="translate(371.419688 85.469437) scale(0.1 -0.1)">
      <defs>
       <path id="DejaVuSans-4d" d="M 628 4666 
L 1569 4666 
L 2759 1491 
L 3956 4666 
L 4897 4666 
L 4897 0 
L 4281 0 
L 4281 4097 
L 3078 897 
L 2444 897 
L 1241 4097 
L 1241 0 
L 628 0 
L 628 4666 
z
" transform="scale(0.015625)"/>
      </defs>
      <use xlink:href="#DejaVuSans-41"/>
      <use xlink:href="#DejaVuSans-4d" x="68.408203"/>
      <use xlink:href="#DejaVuSans-52" x="154.6875"/>
     </g>
    </g>
    <g id="line2d_20">
     <path d="M 343.419688 96.647562 
L 353.419688 96.647562 
L 363.419688 96.647562 
" style="fill: none; stroke: #7c1d6f; stroke-width: 1.5; stroke-linecap: square"/>
    </g>
    <g id="text_19">
     <!-- EAS -->
     <g transform="translate(371.419688 100.147562) scale(0.1 -0.1)">
      <defs>
       <path id="DejaVuSans-45" d="M 628 4666 
L 3578 4666 
L 3578 4134 
L 1259 4134 
L 1259 2753 
L 3481 2753 
L 3481 2222 
L 1259 2222 
L 1259 531 
L 3634 531 
L 3634 0 
L 628 0 
L 628 4666 
z
" transform="scale(0.015625)"/>
      </defs>
      <use xlink:href="#DejaVuSans-45"/>
      <use xlink:href="#DejaVuSans-41" x="63.183594"/>
      <use xlink:href="#DejaVuSans-53" x="131.591797"/>
     </g>
    </g>
    <g id="line2d_21">
     <path d="M 343.419688 111.325687 
L 353.419688 111.325687 
L 363.419688 111.325687 
" style="fill: none; stroke: #045275; stroke-width: 1.5; stroke-linecap: square"/>
    </g>
    <g id="text_20">
     <!-- EUR -->
     <g transform="translate(371.419688 114.825687) scale(0.1 -0.1)">
      <defs>
       <path id="DejaVuSans-55" d="M 556 4666 
L 1191 4666 
L 1191 1831 
Q 1191 1081 1462 751 
Q 1734 422 2344 422 
Q 2950 422 3222 751 
Q 3494 1081 3494 1831 
L 3494 4666 
L 4128 4666 
L 4128 1753 
Q 4128 841 3676 375 
Q 3225 -91 2344 -91 
Q 1459 -91 1007 375 
Q 556 841 556 1753 
L 556 4666 
z
" transform="scale(0.015625)"/>
      </defs>
      <use xlink:href="#DejaVuSans-45"/>
      <use xlink:href="#DejaVuSans-55" x="63.183594"/>
      <use xlink:href="#DejaVuSans-52" x="136.376953"/>
     </g>
    </g>
    <g id="line2d_22">
     <path d="M 343.419688 126.003812 
L 353.419688 126.003812 
L 363.419688 126.003812 
" style="fill: none; stroke: #6cba7d; stroke-width: 1.5; stroke-linecap: square"/>
    </g>
    <g id="text_21">
     <!-- SAS -->
     <g transform="translate(371.419688 129.503812) scale(0.1 -0.1)">
      <use xlink:href="#DejaVuSans-53"/>
      <use xlink:href="#DejaVuSans-41" x="65.351562"/>
      <use xlink:href="#DejaVuSans-53" x="133.759766"/>
     </g>
    </g>
   </g>
  </g>
 </g>
 <defs>
  <clipPath id="p3d6fc2917c">
   <rect x="45.716875" y="39.51475" width="357.12" height="266.112"/>
  </clipPath>
 </defs>
</svg>
